<svg width="91" height="91" viewBox="0 0 91 91" fill="none" xmlns="http://www.w3.org/2000/svg">
<path d="M5.47382 64.5717C5.70488 63.8785 7.71328 61.6924 9.01074 60.3416C9.89941 59.3996 11.1791 59.5774 12.5832 60.5727C13.774 59.2219 14.9471 57.8356 16.1912 56.5381C17.0621 55.6317 17.6664 54.6008 18.0041 53.41C19.1061 49.4643 20.2613 45.5186 21.2566 41.5551C21.8965 39.0313 23.0695 36.9162 25.0246 35.21C28.0994 32.5262 31.1742 29.8246 34.1957 27.1053C35.7598 25.7012 37.4482 24.8836 39.6166 25.0614C41.856 25.2391 44.0955 25.2569 46.335 25.3102C47.0103 25.328 47.6324 25.3991 47.9168 26.1278C48.1834 26.8209 47.7391 27.283 47.3125 27.7451C44.1311 31.2998 40.9851 34.9078 37.7326 38.4092C36.7906 39.4223 36.5418 40.3998 36.915 41.7151C37.1283 41.5018 37.3238 41.3063 37.5193 41.093C44.3443 33.4504 51.1871 25.8256 57.9943 18.1653C58.8119 17.2588 59.5939 16.9034 60.7848 17.401C61.7801 17.8276 62.8287 17.6854 63.8062 17.2055C64.9971 16.619 65.4059 16.6901 66.4012 17.561C69.7781 20.5825 73.1728 23.6039 76.5498 26.6254C77.4385 27.4252 77.5629 27.9051 77.1541 29.0426C76.7453 30.1623 76.7986 31.2287 77.3318 32.2952C77.8828 33.3793 77.8117 33.877 77.0297 34.7657C71.04 41.4662 65.0504 48.1846 59.0607 54.8852C58.4031 55.6139 57.6744 55.7383 57.1234 55.2051C56.608 54.7075 56.6613 54.0143 57.2834 53.3034C63.0598 46.8338 68.8361 40.3643 74.6303 33.9125C75.0035 33.486 75.1279 33.166 74.8969 32.5973C74.417 31.4065 74.3637 30.1446 74.7191 28.9182C74.8435 28.5094 74.808 28.2606 74.4703 27.9584C71.3955 25.2391 68.3385 22.4842 65.2459 19.7649C65.0504 19.5871 64.606 19.516 64.3572 19.6049C63.0953 20.067 61.7978 20.2092 60.5182 19.8182C59.9672 19.6582 59.7006 19.8537 59.3807 20.2092C53.0711 27.283 46.7615 34.3391 40.4519 41.4129C39.4566 42.5326 38.4435 43.6168 37.4838 44.7721C37.2527 45.0565 37.1105 45.5186 37.0928 45.8918C37.075 46.8516 37.2172 47.8114 37.2172 48.7711C37.235 49.7487 37.857 50.193 38.6213 50.5129C39.3678 50.8328 39.9721 50.4952 40.4697 49.9442C41.7494 48.5045 43.0113 47.0471 44.3266 45.6608C45.233 44.701 46.2283 43.7946 47.2592 42.7993C46.8148 41.3418 46.6726 39.7244 47.0459 38.0715C47.9168 34.1969 51.4715 31.3176 55.3461 31.3532C59.5051 31.3887 63.0953 34.2147 63.8773 38.0893C64.7305 42.2838 62.6687 46.3006 58.8652 47.9535C58.3498 48.1846 57.8521 48.5401 57.4789 48.9489C54.6174 52.1125 51.7736 55.294 48.9299 58.4932C48.5566 58.902 48.2545 59.3641 47.9168 59.8084C48.9299 59.9684 49.8541 60.1283 50.7783 60.235C50.956 60.2528 51.2227 60.0928 51.3648 59.9328C51.9869 59.2752 52.5734 58.5821 53.1955 57.9067C53.782 57.2846 54.4219 57.2135 54.9551 57.6756C55.4883 58.1377 55.5238 58.8309 54.9728 59.453C54.173 60.3772 53.3555 61.3014 52.5201 62.2078C51.9514 62.8299 51.2582 62.9899 50.4939 62.67C49.2498 62.1545 48.059 62.2078 46.8859 62.8655C46.7615 62.9366 46.6371 63.0254 46.5305 63.0254C45.4107 62.9366 45.1264 63.8608 44.6465 64.5006C46.1217 65.8158 47.5791 67.1133 48.9654 68.3575C60.2516 55.7205 71.591 43.0303 82.8594 30.4289C75.9277 24.226 68.8894 17.952 61.8156 11.6246C61.709 11.7313 61.5135 11.9446 61.318 12.1578C58.1721 15.677 55.0262 19.1961 51.8803 22.7153C51.7025 22.9108 51.5248 23.1241 51.3115 23.284C50.8139 23.6395 50.2984 23.6039 49.8541 23.2129C49.4098 22.8041 49.3209 22.3065 49.6053 21.7733C49.7119 21.56 49.8896 21.3823 50.0496 21.2045C53.3732 17.401 56.6969 13.6864 60.0205 9.97171C61.2291 8.62093 62.3133 8.54984 63.6641 9.75843C70.6312 15.9791 77.5984 22.1998 84.5656 28.4205C85.9164 29.6291 85.9697 30.6955 84.7611 32.0641C73.4928 44.6832 62.2244 57.3024 50.9383 69.9215C49.7297 71.2723 48.6633 71.3256 47.2947 70.117C45.8551 68.8373 44.4332 67.5577 42.958 66.2424C40.3098 68.7485 36.8262 69.566 33.6447 70.9524C32.9871 71.2368 32.3117 71.5211 31.6363 71.7344C30.1434 72.2143 29.1125 73.2807 28.206 74.4893C29.5924 76.2666 29.5568 77.2619 28.0816 78.9149C27.4062 79.6791 26.7486 80.4434 26.0555 81.1721C24.9357 82.3452 23.4605 82.434 22.2697 81.3676C16.9732 76.6576 11.6768 71.9121 6.39804 67.1666C6.0248 66.8289 5.66933 66.4379 5.50937 65.958C5.36718 65.5493 5.34941 64.9805 5.47382 64.5717ZM57.9588 44.5055C58.3676 43.528 57.9588 42.6571 56.8924 42.4616C56.1281 42.3194 55.275 42.2838 54.5107 42.426C51.2582 43.0125 48.4855 44.5055 46.2816 46.9938C44.8953 48.5401 43.5267 50.1219 42.1049 51.6327C40.9141 52.8946 39.4389 53.3567 37.8037 52.6991C36.1508 52.0414 34.96 50.9395 34.8533 48.9844C34.6934 45.9274 34.5334 42.8526 34.3379 39.7955C34.2846 39.0846 34.4801 38.5159 34.96 37.9827C37.857 34.7834 40.7363 31.5487 43.6156 28.3139C43.7934 28.1006 43.9711 27.8873 44.2377 27.5852C42.5137 27.5319 40.9674 27.5674 39.4389 27.4252C38.1059 27.3008 37.0572 27.7451 36.0975 28.5983C32.8627 31.4776 29.6279 34.3391 26.3932 37.1828C24.9891 38.427 24.1359 39.9555 23.6561 41.7684C22.643 45.6608 21.5588 49.5354 20.5102 53.41C19.9769 55.4006 19.035 57.1424 17.5242 58.5998C16.5289 59.5596 15.658 60.6438 14.7338 61.6924C14.5916 61.8346 14.485 62.0123 14.4316 62.0834C18.4484 65.6737 22.4297 69.2284 26.5353 72.8897C26.8375 72.4987 27.1041 71.9832 27.5307 71.6455C28.4016 70.9524 29.2725 70.2059 30.2678 69.7616C32.5961 68.7129 34.9955 67.8065 37.3771 66.8823C39.8476 65.9225 41.8383 64.394 43.2957 62.1901C45.4463 58.9731 47.8102 55.916 50.4939 53.1078C50.6717 52.9301 50.8139 52.7168 51.0094 52.4858C50.7783 52.2725 50.5828 52.077 50.3873 51.8993C48.7166 50.3885 48.6277 48.6289 50.1385 46.9227C50.4228 46.6028 50.7072 46.2828 50.9916 45.9629C53.1244 43.5991 55.0262 43.1903 57.9588 44.5055ZM7.87324 65.2649C7.89101 65.3004 7.89101 65.3182 7.90879 65.336C13.1697 70.0459 18.4307 74.7559 23.6916 79.4659C24.0115 79.7502 24.2248 79.6791 24.4914 79.3948C25.0957 78.6838 25.7 77.9729 26.3576 77.3153C26.8553 76.8354 26.8553 76.5332 26.3043 76.0534C21.2566 71.5744 16.2445 67.0778 11.1969 62.5811C11.0014 62.4034 10.7881 62.2612 10.6459 62.1545C9.72168 63.2032 8.81523 64.2162 7.87324 65.2649ZM60.5892 43.4035C62.2777 41.3774 62.0822 37.9649 60.216 35.8321C58.1721 33.5037 54.7773 32.9883 52.1646 34.6235C49.8008 36.0987 48.5922 39.2623 49.5342 41.5729C49.8008 41.4662 50.0674 41.3596 50.3162 41.2352C51.9691 40.5243 53.6576 39.991 55.4705 39.9377C58.1721 39.8311 59.985 41.0575 60.5892 43.4035ZM52.3602 50.6729C53.7465 49.1266 54.9728 47.7403 56.1992 46.3717C55.2217 45.9274 54.173 46.1051 53.3377 46.9582C52.8045 47.5092 52.3068 48.1135 51.7914 48.6823C51.3826 49.1444 51.4004 49.5709 51.827 50.0153C52.058 50.2463 52.2535 50.5485 52.3602 50.6729Z" fill="#78A5F1"/>
</svg>
