<svg width="91" height="91" viewBox="0 0 91 91" fill="none" xmlns="http://www.w3.org/2000/svg">
<path d="M30.5151 18.4137C30.9061 18.4137 31.2083 18.4137 31.5282 18.4137C41.197 18.4137 50.8479 18.4137 60.5167 18.4137C60.8188 18.4137 61.1387 18.4137 61.4587 18.3781C62.0985 18.2715 62.4362 17.8449 62.454 17.2229C62.4718 16.6541 62.1874 16.192 61.5831 16.0498C61.2632 15.9787 60.9255 15.9609 60.5878 15.9609C50.368 15.9609 40.1483 15.9609 29.9464 15.9609C29.7864 15.9609 29.6087 15.9609 29.4487 15.9609C28.5067 16.0143 28.0624 16.4586 28.0446 17.4184C28.0268 18.7869 28.0446 20.1555 28.0446 21.524C28.0446 23.017 28.3823 23.3369 29.8753 23.3369C40.1483 23.3369 50.4036 23.3369 60.6766 23.3369C60.961 23.3369 61.2632 23.3369 61.5298 23.2836C62.1341 23.177 62.4362 22.7504 62.4718 22.1639C62.4895 21.5951 62.2229 21.133 61.6364 20.973C61.2987 20.8842 60.9255 20.8842 60.57 20.8842C50.8835 20.8842 41.197 20.8842 31.5104 20.8842C31.2083 20.8842 30.9061 20.8842 30.5684 20.8842C30.5151 20.0311 30.5151 19.2668 30.5151 18.4137ZM32.4346 56.6088C26.3739 56.5555 21.4862 61.692 21.895 67.6816C22.2505 72.907 26.1784 76.9416 31.4571 77.4748C37.3401 78.0791 42.7788 73.1736 42.7788 67.2906C42.7788 66.4197 42.3522 65.8688 41.6057 65.851C40.877 65.8332 40.3971 66.3486 40.3083 67.2018C40.2727 67.6105 40.255 68.0193 40.1839 68.4103C39.5085 72.516 35.5983 75.5197 31.5638 75.0221C27.1559 74.4889 23.9923 70.7742 24.3477 66.5441C24.7032 62.1719 28.3112 58.9193 32.6124 59.0793C34.2653 59.1504 35.7405 59.7191 37.1091 60.6256C37.7845 61.0699 38.5132 60.91 38.8864 60.3234C39.2596 59.7369 39.0997 59.0438 38.4421 58.5816C36.6292 57.302 34.6208 56.6266 32.4346 56.6088ZM51.3278 36.8803C55.6468 36.8803 59.9835 36.8803 64.3024 36.8803C64.569 36.8803 64.8356 36.8803 65.1022 36.8447C65.7243 36.7559 66.0975 36.3648 66.1331 35.7428C66.1686 35.1207 65.8665 34.6764 65.2444 34.5164C64.9778 34.4453 64.6757 34.4275 64.3913 34.4275C55.7178 34.4275 47.0444 34.4275 38.371 34.4275C38.0688 34.4275 37.7489 34.4453 37.4468 34.5342C36.878 34.7119 36.6114 35.1562 36.647 35.7605C36.7003 36.3648 37.038 36.7381 37.6245 36.8447C37.9089 36.898 38.1932 36.8803 38.4954 36.8803C42.7788 36.8803 47.0622 36.8803 51.3278 36.8803ZM39.0819 44.274C42.9565 44.274 46.8134 44.274 50.688 44.274C50.9368 44.274 51.1679 44.274 51.3989 44.2563C52.1454 44.1852 52.5897 43.7408 52.5897 43.0654C52.6075 42.39 52.1809 41.9457 51.4345 41.8391C51.2212 41.8035 51.0079 41.8035 50.7946 41.8035C42.9921 41.8035 35.1895 41.8035 27.387 41.8035C27.0848 41.8035 26.7649 41.8213 26.4628 41.8924C25.8762 42.0346 25.5741 42.4611 25.5919 43.0477C25.5919 43.652 25.9118 44.0607 26.4983 44.1852C26.8005 44.2563 27.1204 44.2563 27.4225 44.2563C31.2971 44.274 35.1895 44.274 39.0819 44.274ZM45.3026 25.8074C41.3925 25.8074 37.4823 25.8074 33.5544 25.8074C32.3102 25.8074 31.7237 26.1984 31.7237 27.0338C31.7237 27.8691 32.328 28.2779 33.5366 28.2779C41.3391 28.2779 49.1417 28.2779 56.9442 28.2779C58.1528 28.2779 58.7749 27.8514 58.7393 27.016C58.7216 26.1984 58.1528 25.8252 56.9442 25.8252C53.0874 25.8074 49.195 25.8074 45.3026 25.8074ZM32.9323 50.4236C34.9052 50.4236 36.878 50.4236 38.8509 50.4236C39.7751 50.4236 40.3261 49.9437 40.3261 49.1973C40.3261 48.4686 39.7573 47.9709 38.8509 47.9709C34.9407 47.9709 31.0128 47.9709 27.1026 47.9709C26.1784 47.9709 25.6274 48.433 25.6096 49.1795C25.5919 49.9615 26.1429 50.4236 27.1204 50.4236C29.0399 50.4236 30.9772 50.4236 32.9323 50.4236ZM31.9725 68.1437C31.0839 67.2195 30.2841 66.3664 29.4487 65.5488C28.8622 64.9801 28.1513 64.9801 27.6536 65.4955C27.1737 65.9754 27.1559 66.6863 27.6891 67.2373C28.56 68.1615 29.4487 69.068 30.4085 69.9211C31.3505 70.7742 32.6479 70.7387 33.6255 69.9211C33.9987 69.6189 34.3186 69.2635 34.6563 68.9258C35.7405 67.8416 36.8247 66.7574 37.9089 65.6555C38.3177 65.2467 38.5665 64.7312 38.2466 64.2336C38.0333 63.8959 37.5889 63.5404 37.2157 63.5049C36.8425 63.4871 36.3448 63.7715 36.0427 64.0559C34.7096 65.3533 33.4122 66.7041 31.9725 68.1437ZM60.6411 44.274C62.063 44.2563 63.4671 44.274 64.8889 44.2563C65.4932 44.2563 65.9553 43.9541 66.0975 43.332C66.222 42.7988 66.062 42.3189 65.5643 42.0346C65.3511 41.9102 65.0667 41.8213 64.8179 41.8213C62.0096 41.8035 59.2014 41.8213 56.3932 41.8213C56.251 41.8213 56.1089 41.8568 55.9667 41.8924C55.3979 42.0701 55.0958 42.4789 55.1136 43.0832C55.1313 43.6697 55.4512 44.0785 56.0378 44.2029C56.2866 44.2562 56.5532 44.274 56.8198 44.274C58.0995 44.274 59.3792 44.274 60.6411 44.274ZM48.253 50.4236C49.6393 50.4236 51.0434 50.4236 52.4298 50.4236C53.3007 50.4236 53.8339 49.926 53.8516 49.215C53.8516 48.5041 53.3007 47.9709 52.4653 47.9709C49.7104 47.9531 46.9378 47.9531 44.1829 47.9709C43.3298 47.9709 42.7788 48.5219 42.7966 49.215C42.8143 49.926 43.3653 50.4059 44.2362 50.4059C45.5692 50.4236 46.9022 50.4236 48.253 50.4236Z" fill="#78A5F1"/>
<path d="M19.959 82.4328C18.4838 81.9529 17.3641 81.0998 17.0264 79.4824C16.9553 79.1092 16.9375 78.7182 16.9375 78.3271C16.9375 56.448 16.9375 34.5689 16.9375 12.6898C16.9375 10.0771 18.4305 8.56641 21.0432 8.56641C37.1637 8.56641 53.3019 8.56641 69.4225 8.56641C72.0351 8.56641 73.5281 10.0594 73.5281 12.6898C73.5281 20.1014 73.5281 27.4951 73.5281 34.9066C73.5281 35.1732 73.5281 35.4398 73.457 35.6887C73.3148 36.2396 72.9416 36.5418 72.3729 36.5773C71.7686 36.6129 71.342 36.3285 71.1642 35.7598C71.0576 35.4221 71.0576 35.0488 71.0576 34.6934C71.0576 27.424 71.0576 20.1725 71.0576 12.9031C71.0576 11.3746 70.7199 11.0191 69.2092 11.0191C53.2309 11.0191 37.2348 11.0191 21.2564 11.0191C19.7457 11.0191 19.3725 11.3746 19.3725 12.8854C19.3725 34.6223 19.3725 56.3592 19.3725 78.0961C19.3725 79.6246 19.7279 79.9801 21.2387 79.9801C37.217 79.9801 53.2131 79.9801 69.1914 79.9801C70.7199 79.9801 71.0576 79.6424 71.0576 78.1316C71.0576 74.4525 71.0576 70.7734 71.0576 67.0943C71.0576 66.7566 71.0576 66.4189 71.1465 66.099C71.3064 65.5125 71.733 65.2281 72.3373 65.2459C72.9416 65.2637 73.3326 65.5836 73.457 66.1701C73.5281 66.4723 73.5103 66.7922 73.5103 67.0943C73.5103 70.6135 73.4393 74.1148 73.5459 77.6162C73.617 79.9445 72.8883 81.633 70.5777 82.415C53.7107 82.4328 36.8437 82.4328 19.959 82.4328Z" fill="#78A5F1"/>
<path d="M90.5886 28.0811C90.4286 28.5965 90.1265 29.2186 89.7532 30.0184C90.5353 30.7116 90.2864 31.4758 89.7888 32.2756C88.8646 33.8219 87.9937 35.386 87.0517 36.9856C87.3894 37.1811 87.6915 37.3766 87.9937 37.5544C89.9132 38.7274 90.4997 40.7713 89.4155 42.7086C87.8515 45.4991 86.2341 48.254 84.6345 51.0088C84.1901 51.7731 83.5148 51.9864 82.8927 51.6487C82.2351 51.2754 82.0929 50.5823 82.555 49.7647C84.0124 47.2231 85.4698 44.6815 86.945 42.1399C87.9048 40.487 87.7093 39.9538 85.8431 39.1362C85.7187 39.3495 85.5765 39.5627 85.4521 39.7938C82.5017 44.9126 79.5157 50.0135 76.6187 55.1678C75.4812 57.194 73.9882 58.9536 72.5663 60.7665C71.4821 62.135 70.4513 63.5569 69.4915 65.0143C68.5495 66.4184 67.3232 67.1293 65.6169 66.9872C65.3681 66.9694 65.0304 67.1293 64.8704 67.3249C64.0528 68.3024 63.2886 69.3155 62.4888 70.3108C61.0669 72.0526 58.8985 71.7504 58.0276 69.671C57.8144 69.1733 57.6189 68.6579 57.37 68.0536C57.2101 68.2491 57.1034 68.3913 56.9968 68.5335C56.2681 69.6176 55.2372 70.0975 54.1886 69.8309C53.0511 69.5465 52.3757 68.6223 52.2868 67.236C52.1802 65.8497 52.0558 64.4811 51.8069 63.0592C51.7358 63.2547 51.647 63.4502 51.5759 63.6635C50.705 66.2762 49.8519 68.9067 48.9632 71.5194C48.6255 72.5147 47.8257 72.8346 47.0792 72.3192C46.546 71.9637 46.4216 71.4483 46.5993 70.8618C47.5946 67.8403 48.5899 64.801 49.6386 61.7795C50.0118 60.6776 51.1138 60.0733 52.2691 60.1977C53.2999 60.3221 54.2064 61.1575 54.3485 62.295C54.5441 63.8946 54.6507 65.4942 54.8107 67.2182C55.0773 66.8628 55.2728 66.5784 55.486 66.3118C56.588 64.9965 58.5964 65.1387 59.4495 66.6317C59.8405 67.3071 60.0894 68.0713 60.4448 68.8534C61.3157 67.787 62.1511 66.7739 62.9687 65.743C63.0575 65.6186 63.0575 65.3342 62.9864 65.192C62.311 63.8768 62.3644 62.5971 63.0931 61.3352C64.6394 58.687 65.4392 55.7188 66.5944 52.8928C66.7544 52.5018 66.9321 52.093 67.1454 51.7198C70.3802 46.1034 73.615 40.487 76.8675 34.8706C76.9919 34.6395 77.1163 34.4085 77.2407 34.1952C75.6411 33.0577 75.339 32.5956 75.7655 31.8669C76.1921 31.1381 76.7253 31.1559 78.4849 31.9735C78.6093 31.7958 78.7337 31.6002 78.8581 31.4047C79.729 29.9295 80.5821 28.4721 81.4353 26.9969C81.773 26.4104 82.2173 26.0727 82.946 26.126C83.1593 26.1438 83.4792 25.8772 83.5858 25.6639C84.1901 24.562 84.9899 23.7088 86.2696 23.4245C88.1892 22.9979 90.0376 24.0821 90.6241 25.9661C90.6774 26.126 90.7663 26.5348 90.7663 26.7126C90.8019 27.2102 90.713 27.6723 90.5886 28.0811ZM79.4269 35.4038C76.1388 41.0913 72.8685 46.761 69.5804 52.4663C71.02 53.3016 72.4064 54.1014 73.846 54.919C77.1341 49.2137 80.4044 43.5618 83.6925 37.8565C82.2173 37.0211 80.8487 36.2213 79.4269 35.4038ZM84.9011 35.7237C85.7364 34.284 86.5362 32.8977 87.3538 31.4581C85.9142 30.6227 84.5101 29.8229 83.0882 29.0053C82.2528 30.4627 81.453 31.8491 80.6355 33.2532C82.0751 34.0885 83.4437 34.8883 84.9011 35.7237ZM72.4241 56.9452C71.1089 56.1809 69.8648 55.47 68.5495 54.7057C67.9452 56.3231 67.3765 57.8338 66.8077 59.3801C67.6431 59.86 68.4251 60.3221 69.2427 60.7842C70.3091 59.5045 71.34 58.2426 72.4241 56.9452ZM85.3987 27.4946C86.163 27.9211 86.8384 28.3122 87.5316 28.7032C87.9226 27.9211 88.6513 27.2991 88.1181 26.4637C87.9226 26.1438 87.3894 25.8772 87.0161 25.8594C86.0208 25.8417 85.8786 26.8014 85.3987 27.4946ZM67.9452 62.8993C67.1987 62.4727 66.5411 62.0817 65.8124 61.6729C65.4036 62.4016 64.7282 63.0237 65.2081 63.859C65.4036 64.1967 65.9546 64.4989 66.3456 64.4989C67.3232 64.4989 67.4653 63.5569 67.9452 62.8993Z" fill="#78A5F1"/>
<path d="M30.5161 18.4137C30.5161 19.2668 30.5161 20.0311 30.5161 20.8842C30.8538 20.8842 31.1559 20.8842 31.4581 20.8842C41.1446 20.8842 50.8311 20.8842 60.5177 20.8842C60.8731 20.8842 61.2464 20.8842 61.5841 20.973C62.1706 21.133 62.455 21.5773 62.4194 22.1639C62.4017 22.7326 62.0817 23.1592 61.4774 23.2836C61.1931 23.3369 60.9087 23.3369 60.6243 23.3369C50.3513 23.3369 40.096 23.3369 29.8229 23.3369C28.33 23.3369 27.9923 22.9992 27.9923 21.524C27.9923 20.1555 27.9745 18.7869 27.9923 17.4184C27.9923 16.4586 28.4366 16.0143 29.3964 15.9609C29.5563 15.9609 29.7341 15.9609 29.894 15.9609C40.1138 15.9609 50.3335 15.9609 60.5354 15.9609C60.8731 15.9609 61.2108 15.9787 61.5308 16.0498C62.1351 16.192 62.4194 16.6541 62.4016 17.2229C62.3839 17.8271 62.0462 18.2715 61.4063 18.3781C61.1042 18.4314 60.7843 18.4137 60.4643 18.4137C50.7956 18.4137 41.1446 18.4137 31.4759 18.4137C31.2093 18.4137 30.9071 18.4137 30.5161 18.4137Z" fill="#78A5F1"/>
<path d="M32.4367 56.6078C34.6406 56.6434 36.6312 57.301 38.4264 58.5807C39.084 59.0428 39.2617 59.736 38.8707 60.3225C38.4975 60.909 37.7687 61.069 37.0934 60.6246C35.7248 59.7182 34.2496 59.1317 32.5967 59.0783C28.2955 58.9184 24.6875 62.1531 24.332 66.5432C23.9943 70.7733 27.158 74.4879 31.548 75.0211C35.5826 75.5188 39.4928 72.5328 40.1682 68.4094C40.2393 68.0006 40.257 67.5918 40.2926 67.2008C40.3637 66.3477 40.8613 65.8322 41.59 65.85C42.3187 65.8856 42.7631 66.4188 42.7631 67.2897C42.7631 73.1727 37.3066 78.0781 31.4414 77.4738C26.1627 76.9229 22.2348 72.9061 21.8793 67.6807C21.4705 61.691 26.376 56.5545 32.4367 56.6078Z" fill="#78A5F1"/>
<path d="M51.3281 36.8785C47.0447 36.8785 42.7791 36.8785 38.4957 36.8785C38.2114 36.8785 37.9092 36.8963 37.6248 36.843C37.0383 36.7363 36.7006 36.3631 36.6473 35.7588C36.594 35.1545 36.8606 34.7279 37.4471 34.5324C37.7315 34.4436 38.0514 34.4258 38.3713 34.4258C47.0448 34.4258 55.7182 34.4258 64.3916 34.4258C64.676 34.4258 64.9782 34.4436 65.2448 34.5146C65.8668 34.6746 66.169 35.1189 66.1334 35.741C66.0979 36.3631 65.7246 36.7541 65.1026 36.843C64.836 36.8785 64.5694 36.8785 64.3028 36.8785C59.9838 36.8785 55.6649 36.8785 51.3281 36.8785Z" fill="#78A5F1"/>
<path d="M39.082 44.273C35.1896 44.273 31.2973 44.273 27.4049 44.273C27.1027 44.273 26.7828 44.273 26.4807 44.202C25.8941 44.0598 25.592 43.651 25.5742 43.0645C25.5742 42.4602 25.8764 42.0514 26.4451 41.9092C26.7473 41.8381 27.0672 41.8203 27.3693 41.8203C35.1719 41.8203 42.9744 41.8203 50.777 41.8203C50.9902 41.8203 51.2035 41.8203 51.4168 41.8559C52.1633 41.9625 52.5721 42.4068 52.5721 43.0822C52.5543 43.7398 52.1277 44.1842 51.3813 44.273C51.1502 44.2908 50.9014 44.2908 50.6703 44.2908C46.8135 44.273 42.9566 44.273 39.082 44.273Z" fill="#78A5F1"/>
<path d="M45.3016 25.8068C49.1939 25.8068 53.0863 25.8068 56.9787 25.8068C58.1873 25.8068 58.756 26.1978 58.7738 26.9977C58.7916 27.833 58.1873 28.2596 56.9787 28.2596C49.1762 28.2596 41.3736 28.2596 33.5711 28.2596C32.3447 28.2596 31.7404 27.8508 31.7582 27.0154C31.7582 26.1801 32.3447 25.7891 33.5889 25.7891C37.4812 25.8068 41.3914 25.8068 45.3016 25.8068Z" fill="#78A5F1"/>
<path d="M32.9328 50.4215C30.9778 50.4215 29.0405 50.4215 27.0854 50.4215C26.1078 50.4215 25.5569 49.9594 25.5746 49.1773C25.5924 48.4309 26.1434 47.9688 27.0676 47.9688C30.9778 47.9688 34.9057 47.9688 38.8158 47.9688C39.7223 47.9688 40.291 48.4664 40.291 49.1951C40.291 49.9416 39.7401 50.4215 38.8158 50.4215C36.8608 50.4215 34.9057 50.4215 32.9328 50.4215Z" fill="#78A5F1"/>
<path d="M31.9758 68.1417C33.4155 66.6843 34.7129 65.3513 36.0637 64.0538C36.3659 63.7695 36.8458 63.4673 37.2368 63.5029C37.61 63.5206 38.0544 63.8939 38.2676 64.2316C38.5698 64.7292 38.321 65.2447 37.9299 65.6534C36.8458 66.7376 35.7616 67.8218 34.6774 68.9238C34.3397 69.2615 34.002 69.6169 33.6465 69.9191C32.669 70.7544 31.3715 70.7722 30.4295 69.9191C29.4876 69.0659 28.5989 68.1595 27.7102 67.2353C27.177 66.6843 27.1948 65.9734 27.6747 65.4935C28.1723 64.9781 28.8833 64.9781 29.4698 65.5468C30.2874 66.3644 31.0872 67.2353 31.9758 68.1417Z" fill="#78A5F1"/>
<path d="M60.6416 44.2731C59.3619 44.2731 58.1 44.2731 56.8203 44.2731C56.5537 44.2731 56.2871 44.2731 56.0382 44.202C55.4517 44.0599 55.1318 43.6688 55.114 43.0823C55.0962 42.478 55.3984 42.087 55.9671 41.8915C56.1093 41.8559 56.2515 41.8204 56.3937 41.8204C59.2019 41.8204 62.0101 41.8026 64.8183 41.8204C65.0672 41.8204 65.3515 41.9093 65.5648 42.0337C66.0625 42.3181 66.2224 42.7979 66.098 43.3311C65.9558 43.9532 65.4937 44.2554 64.8894 44.2554C63.4675 44.2731 62.0634 44.2554 60.6416 44.2731Z" fill="#78A5F1"/>
<path d="M48.2559 50.4229C46.9051 50.4229 45.5721 50.4229 44.2213 50.4229C43.3504 50.4229 42.7994 49.943 42.7817 49.2321C42.7639 48.5211 43.3149 47.9879 44.168 47.9879C46.9229 47.9702 49.6955 47.9702 52.4504 47.9879C53.3035 47.9879 53.8545 48.5211 53.8367 49.2321C53.8367 49.943 53.2858 50.4229 52.4149 50.4407C51.0463 50.4229 49.6422 50.4229 48.2559 50.4229Z" fill="#78A5F1"/>
</svg>
