<svg width="91" height="91" viewBox="0 0 91 91" fill="none" xmlns="http://www.w3.org/2000/svg">
<path d="M37.9832 8.28128C38.4809 8.53011 38.6941 9.06331 38.8719 9.57874C46.5678 32.7909 54.2459 56.003 61.9062 79.2328C62.1195 79.8727 62.3861 80.086 63.0615 80.0682C65.2477 80.0149 67.4338 80.0504 69.6199 80.0504C69.8865 80.0504 70.1531 80.0326 70.4197 80.1037C71.0063 80.2459 71.3439 80.6369 71.3795 81.2412C71.415 81.8455 71.1129 82.2721 70.5441 82.4676C70.2598 82.5565 69.9221 82.5565 69.6021 82.5565C63.8791 82.5565 58.1383 82.5565 52.4152 82.5565C52.273 82.5565 52.1309 82.5565 51.9709 82.5565C51.1178 82.5209 50.5668 81.9877 50.5846 81.2768C50.6023 80.5836 51.1533 80.086 51.9709 80.086C54.1748 80.0682 56.3965 80.086 58.6004 80.086C58.867 80.086 59.1336 80.086 59.5424 80.086C56.592 71.1459 53.6594 62.2948 50.7268 53.4436C50.6734 53.4436 50.6201 53.4614 50.5668 53.4614C50.3535 55.3987 50.1225 57.336 49.9447 59.2733C49.927 59.5399 50.1402 59.8598 50.318 60.0908C51.5977 61.8326 52.7707 63.6455 53.4283 65.7428C54.6369 69.5641 53.0906 72.3723 49.1805 73.3676C48.4873 73.5453 48.2029 73.7764 48.1318 74.5229C47.9186 76.8157 47.6164 79.1084 47.3498 81.3834C47.2254 82.4676 46.8166 82.8586 45.768 82.8586C39.1207 82.8586 32.4557 82.8586 25.8084 82.8586C24.7242 82.8586 24.3154 82.4498 24.191 81.3301C23.8 77.8998 23.409 74.4873 23.018 71.0571C23.0002 70.9682 22.9824 70.8615 22.9646 70.7371C22.7691 70.7549 22.5736 70.7549 22.3959 70.7905C21.2051 70.9504 20.6719 70.4883 20.6719 69.2619C20.6719 63.1123 20.6719 56.9805 20.6719 50.8309C20.6719 49.6045 21.0984 49.1957 22.3604 49.1957C31.0338 49.1957 39.6895 49.1957 48.3629 49.1957C48.6473 49.1957 48.9316 49.1957 49.3049 49.1957C49.1982 48.8225 49.1094 48.5381 49.0205 48.2715C44.8437 35.6701 40.6848 23.051 36.508 10.4496C36.117 9.24105 36.3836 8.53011 37.1301 8.28128C37.3789 8.13909 37.7699 8.17464 37.9832 8.28128ZM48.274 51.684C44.2395 51.684 40.3293 51.684 36.3303 51.684C36.3303 52.0039 36.3303 52.3061 36.3303 52.5905C36.3303 57.2471 36.3303 61.9037 36.3303 66.5782C36.3303 67.7512 36.0637 68.0711 34.9084 68.2844C33.2021 68.6221 31.4781 68.9598 29.7719 69.2975C28.35 69.5819 26.9281 69.8662 25.4707 70.1506C25.8617 73.5809 26.2527 76.9401 26.6437 80.2815C32.8289 80.2815 38.9074 80.2815 45.0037 80.2815C45.2881 77.811 45.5725 75.4116 45.8391 72.9944C46.3012 68.9242 46.7811 64.8541 47.2076 60.784C47.2432 60.4285 47.0832 59.9664 46.8521 59.6998C45.5191 58.2246 44.1328 56.8028 42.7643 55.3631C42.5688 55.1498 42.3377 54.9543 42.1777 54.7233C41.8223 54.1901 41.8578 53.6569 42.2844 53.1948C42.7109 52.7326 43.2619 52.6793 43.8129 52.9992C44.0617 53.1414 44.275 53.3547 44.4883 53.5502C45.5547 54.5633 46.6211 55.5764 47.723 56.625C47.883 55.0076 48.0785 53.3725 48.274 51.684ZM23.2135 51.6662C23.2135 57.1227 23.2135 62.5258 23.2135 67.9823C23.4623 67.9467 23.6756 67.9289 23.8889 67.8934C26.9637 67.2891 30.0207 66.667 33.0955 66.0983C33.682 65.9916 33.842 65.7961 33.842 65.2274C33.8242 60.9262 33.8242 56.6428 33.8242 52.3416C33.8242 52.1283 33.8064 51.9151 33.7887 51.684C30.2518 51.6662 26.7682 51.6662 23.2135 51.6662ZM48.5939 70.8615C50.94 70.1862 51.7754 68.942 51.1889 66.9158C50.8689 65.8317 50.3002 64.8364 49.8381 63.8055C49.767 63.6633 49.6426 63.5389 49.4648 63.3078C49.1627 65.9028 48.8783 68.3555 48.5939 70.8615Z" fill="#78A5F1"/>
<path d="M42.1609 39.4035C42.1786 41.8029 40.2413 43.758 37.8419 43.7936C35.4247 43.8113 33.4163 41.8562 33.3986 39.4391C33.3808 37.0574 35.407 35.0312 37.8064 35.0312C40.188 35.049 42.1431 37.0041 42.1609 39.4035ZM39.6548 39.4568C39.6726 38.426 38.7839 37.5373 37.7886 37.5373C36.8288 37.5373 35.9224 38.426 35.9046 39.4035C35.8868 40.4166 36.7755 41.3053 37.7886 41.3053C38.8017 41.3053 39.637 40.4521 39.6548 39.4568Z" fill="#78A5F1"/>
<path d="M24.1562 44.8586C24.1562 43.0457 25.5959 41.5882 27.4088 41.5705C29.2395 41.5527 30.7502 43.0634 30.7324 44.8763C30.7146 46.6714 29.2217 48.1466 27.4266 48.1466C25.6314 48.1466 24.1562 46.6714 24.1562 44.8586ZM28.1553 45.1252C28.2264 44.983 28.1908 44.6808 28.1197 44.5564C27.9953 44.3076 27.782 44.1121 27.4443 44.0943C26.9822 44.0588 26.6979 44.432 26.6801 44.8408C26.6623 45.3384 27 45.5873 27.4443 45.605C27.782 45.605 28.0309 45.374 28.1553 45.1252Z" fill="#78A5F1"/>
<path d="M31.6036 36.9141C30.9104 36.8963 30.3772 36.3275 30.395 35.6344C30.4127 34.9768 30.9459 34.4436 31.6036 34.4258C32.2789 34.4258 32.8655 34.9945 32.8655 35.6521C32.8655 36.3631 32.2789 36.9318 31.6036 36.9141Z" fill="#78A5F1"/>
</svg>
