<svg width="91" height="91" viewBox="0 0 91 91" fill="none" xmlns="http://www.w3.org/2000/svg">
<path d="M77.0845 22.2515C77.049 21.7539 76.889 20.9896 76.8001 20.5631C76.3558 18.4836 75.4316 16.5463 74.0275 14.8222C73.5121 14.1824 72.7656 14.0402 72.1791 14.4668C71.5748 14.9111 71.5037 15.6754 72.0191 16.3863C72.0902 16.4752 72.1613 16.564 72.2146 16.6529C72.2679 16.724 72.339 16.8129 72.3923 16.884C73.7609 18.7857 74.4718 20.8119 74.5074 22.9092C74.5785 26.606 73.0144 29.7164 69.8685 32.1336C65.6207 35.4039 60.5908 36.3992 54.9033 35.084C54.1568 34.9062 53.5703 35.0306 53.0193 35.4928C52.3084 36.0793 51.5619 36.648 50.7798 37.2523C50.5666 37.4123 50.3711 37.5722 50.1578 37.7322C50.1755 37.5367 50.1933 37.359 50.2111 37.1635C50.2822 36.417 50.3533 35.7238 50.4777 35.0484C50.6732 33.9465 50.3888 33.2355 49.4468 32.5779C46.5142 30.5517 44.7902 27.9213 44.3281 24.7576C43.7771 20.9719 45.0746 17.6305 48.2027 14.8222C53.4103 10.1301 62.0482 9.41912 68.2867 13.1693C68.9265 13.5426 69.4242 13.6847 69.833 13.5781C70.1173 13.507 70.3662 13.3115 70.5261 12.9916C70.7039 12.6717 70.7572 12.3695 70.6683 12.0851C70.5617 11.6941 70.2062 11.3209 69.5841 10.9832C63.008 7.33963 56.2541 7.26854 49.5002 10.7344C49.1625 10.9121 48.3093 11.4808 47.8472 11.8008C47.6339 11.943 47.2962 12.2096 47.0652 12.4051C46.8341 12.6006 46.4787 12.9205 46.3009 13.0805C42.4441 16.7773 40.9689 21.0785 41.9287 25.8773C42.5863 29.1832 44.4703 32.0447 47.5273 34.3375C47.8294 34.5685 47.9361 34.7285 47.8828 35.1195C47.6695 36.6658 47.5095 38.2476 47.3673 39.6162C47.2785 40.4515 47.5984 41.0558 48.2738 41.358C48.5048 41.4646 48.7181 41.518 48.9314 41.518C49.4291 41.518 49.8378 41.2514 50.14 41.0203C50.6021 40.6648 51.0642 40.2916 51.5085 39.9361C52.3261 39.2963 53.1793 38.6209 53.9968 37.9455C54.3168 37.6967 54.5834 37.6611 55.0632 37.7144C55.3654 37.75 55.6675 37.7855 55.9697 37.8033C57.4449 37.9633 58.9734 38.1232 60.4841 38.1054C62.0126 38.0877 63.7722 37.8211 65.2296 37.3945C66.1361 37.1279 67.5046 36.4881 67.9134 36.2926C71.7525 34.4619 74.3474 31.9381 75.8404 28.5967C76.4269 27.2992 76.8001 26.2861 77.0312 24.8998C77.1556 24.2422 77.1734 23.3713 77.0845 22.2515Z" fill="#78A5F1"/>
<path d="M66.8103 18.8027C62.2603 18.8027 57.6926 18.8027 53.1426 18.8027C52.1473 18.8027 51.543 19.2826 51.543 20.0824C51.543 20.8822 52.1473 21.3621 53.1426 21.3621C54.76 21.3621 56.3596 21.3621 57.977 21.3621H59.9143H61.9049C62.5625 21.3621 63.2379 21.3621 63.8955 21.3621C64.873 21.3621 65.8506 21.3621 66.8281 21.3621C67.3791 21.3621 67.7879 21.2199 68.0545 20.9355C68.2678 20.7045 68.3744 20.4023 68.3744 20.0291C68.3389 19.567 68.1256 18.8027 66.8103 18.8027Z" fill="#78A5F1"/>
<path d="M67.4346 24.4559C67.168 24.3848 66.8836 24.3848 66.617 24.3848H66.5459C64.8752 24.3848 63.1867 24.3848 61.516 24.3848H59.9164H57.9436C56.415 24.3848 54.8865 24.3848 53.358 24.3848C52.1494 24.3848 51.5451 24.8113 51.5273 25.6467C51.5273 26.0021 51.634 26.2865 51.8295 26.4998C52.1316 26.802 52.6115 26.9441 53.3225 26.9441C55.1176 26.9441 56.8949 26.9441 58.69 26.9441C61.3205 26.9441 63.951 26.9441 66.5814 26.9441C66.8658 26.9441 67.168 26.9441 67.4701 26.8553C68.0389 26.6953 68.3588 26.251 68.341 25.6467C68.341 25.0246 68.0211 24.598 67.4346 24.4559Z" fill="#78A5F1"/>
<path d="M63.9675 47.9691C62.2968 49.2843 60.7505 50.4929 59.2042 51.7193C55.3118 54.7763 51.4372 57.8334 47.5449 60.8726C45.5365 62.4545 43.6525 62.4189 41.6441 60.8371C37.805 57.8156 33.966 54.7941 30.1269 51.7726C29.807 51.5238 29.4337 51.3283 28.9538 51.0084C28.4917 51.2927 27.6031 51.7015 26.8566 52.2881C25.8435 53.0879 25.8613 54.2787 26.0568 55.434C26.1279 55.8605 26.3056 56.2871 26.5189 56.6603C28.314 59.7707 30.1091 62.881 31.9042 65.9736C32.4019 66.8445 33.1484 67.431 34.0726 67.8043C34.8902 68.142 35.69 68.1064 36.4542 67.6265C37.0763 67.2355 37.7161 66.8801 38.356 66.5246C40.2933 65.4049 42.3372 65.547 44.079 66.9511C44.5411 67.3244 45.0033 67.7332 45.3765 68.1953C47.2249 70.5414 48.9312 72.9763 49.7665 75.8734C49.9443 76.4955 50.0154 77.1709 49.9976 77.8107C49.9798 78.8593 49.4466 79.6592 48.5224 80.2101C42.2128 83.9248 36.081 83.3916 30.1624 79.3215C27.6031 77.5619 25.488 75.3047 23.8884 72.6564C21.3824 68.533 18.9296 64.374 16.6368 60.1261C14.6107 56.3759 13.5976 52.3236 13.9708 48.0224C14.4329 42.726 16.8857 38.5847 21.4179 35.741C21.6312 35.6166 21.8622 35.5099 22.0755 35.3677C23.6929 34.2658 25.1681 34.799 26.3056 35.7765C27.532 36.8429 28.4562 38.1404 29.2204 39.5623C29.8247 40.6642 30.3579 41.8017 30.9445 42.9037C31.0333 43.0636 31.2644 43.1703 31.4421 43.2414C31.5843 43.2947 31.7443 43.2592 31.9042 43.2592C42.0351 43.2592 52.1837 43.2592 62.3146 43.2592C62.8478 43.2592 63.3988 43.2769 63.9142 43.4191C65.5138 43.8279 66.438 45.0543 66.438 46.725C66.438 54.2076 66.4025 61.6724 66.4558 69.1551C66.4736 71.3056 64.8206 72.692 63.0433 72.7097C59.1509 72.7631 55.2408 72.7275 51.3484 72.7275C50.6019 72.7275 50.0865 72.1765 50.0865 71.5011C50.0865 70.8258 50.5486 70.3281 51.2773 70.257C51.5439 70.2392 51.8105 70.2392 52.0949 70.2392C55.5074 70.2392 58.9376 70.2392 62.3501 70.2392C62.5812 70.2392 62.8122 70.2392 63.0433 70.2215C63.7009 70.1504 63.9497 69.8482 63.9497 69.1906C63.9497 68.3197 63.9497 67.4488 63.9497 66.5779C63.9497 60.606 63.9497 54.6342 63.9497 48.6623C63.9675 48.5379 63.9675 48.3246 63.9675 47.9691ZM39.8134 80.2635C42.1417 80.2457 44.2034 79.8013 46.1052 78.7705C47.7937 77.8463 47.847 77.6863 47.1361 75.8556C46.354 73.8472 45.1632 72.0521 43.8658 70.3459C43.457 69.8127 42.9593 69.3328 42.4617 68.9062C41.5908 68.1597 40.6488 68.0353 39.6535 68.7107C39.0492 69.1195 38.3738 69.4394 37.7517 69.8127C36.312 70.6836 34.8013 70.7547 33.255 70.1859C31.7798 69.6349 30.6068 68.7107 29.807 67.3422C27.9763 64.1785 26.1456 61.0326 24.315 57.8689C22.5376 54.7586 23.4441 51.3638 26.5189 49.5687C27.1232 49.2133 27.7097 48.8578 28.314 48.5201C29.0783 48.0935 29.3626 47.4181 29.3271 46.5828C29.3093 46.2451 29.2738 45.8896 29.1671 45.5519C28.3495 42.8859 27.0343 40.4687 25.2747 38.3181C25.0081 37.9804 24.6349 37.7138 24.2617 37.465C24.1017 37.3584 23.7995 37.3584 23.6396 37.4472C23.0708 37.7316 22.5021 38.0338 21.9867 38.407C18.4142 41.0375 16.548 44.5922 16.4058 49.0177C16.2992 52.9101 17.3833 56.5004 19.2673 59.8595C21.2935 63.5031 23.4263 67.0933 25.5413 70.6836C26.6788 72.6209 28.1185 74.3449 29.7892 75.8734C32.6507 78.4861 35.9566 80.1924 39.8134 80.2635ZM30.9445 49.3199C31.2111 49.5154 31.4243 49.6576 31.6376 49.8353C35.4767 52.8568 39.3158 55.8605 43.1548 58.882C44.239 59.7351 44.9144 59.7351 45.9986 58.8998C51.4017 54.6519 56.8048 50.4041 62.2079 46.174C62.3146 46.0851 62.4745 46.0496 62.599 45.9963C62.5456 45.9429 62.4923 45.9074 62.439 45.8541C52.2193 45.8541 41.9995 45.8541 31.7265 45.8541C31.8865 47.116 31.6732 48.2713 30.9445 49.3199Z" fill="#78A5F1"/>
</svg>
