<svg width="86" height="86" viewBox="0 0 86 86" fill="none" xmlns="http://www.w3.org/2000/svg">
<path d="M85.2456 67.0193C83.2804 61.51 77.7878 57.8818 72.1609 58.4025C69.1542 58.6713 66.4331 59.8639 64.3167 61.8123C62.2003 63.7607 60.823 66.3475 60.3359 69.3037L60.2015 70.1268H55.5656V44.4107H60.0503C60.2015 44.8475 60.3359 45.301 60.4702 45.7377C60.8062 46.7959 61.1085 47.7869 61.562 48.7611C62.7378 51.2303 64.6863 53.2123 67.1722 54.4553C69.6413 55.6982 72.4296 56.1182 75.2179 55.6814C77.8382 55.2615 80.3409 53.9514 82.2558 51.9861C84.1706 50.0377 85.4304 47.5014 85.7999 44.8643C85.8167 44.7467 85.8335 44.6291 85.8503 44.4947L85.8839 44.31C86.0183 43.4029 86.0015 42.7814 85.9343 41.8408C85.8335 40.6314 85.4304 39.1365 84.8089 37.7424C82.5245 32.6025 77.3175 29.5455 71.8417 30.1166C66.1644 30.7045 61.6796 34.6853 60.4366 40.2619C60.3695 40.581 60.3191 40.8834 60.2687 41.2361C60.2519 41.3369 60.2351 41.4377 60.2183 41.5553H55.5656V15.8225H59.9159C60.1175 16.36 60.3023 16.9142 60.4702 17.4517C60.8902 18.7283 61.2933 19.9377 61.898 21.0631C64.4343 25.7662 69.9605 28.3529 75.3187 27.3619C80.7273 26.3541 84.9265 22.0709 85.7663 16.7127C85.8167 16.4439 85.8335 16.2592 85.8671 15.9736C85.9679 15.1338 85.9679 14.3275 85.8671 13.4205C85.8503 13.3029 85.8335 13.135 85.8167 13.0006V12.967C85.38 9.87636 83.9019 7.07128 81.6343 5.03886C79.3835 2.98964 76.4273 1.84745 73.3367 1.78026C66.9706 1.64589 61.4949 6.16425 60.3863 12.4127C60.3023 12.8998 60.1343 12.9838 59.664 12.9838C58.4714 12.967 57.262 12.967 56.0863 12.967H56.0527C55.6495 12.967 55.2296 12.967 54.8265 12.967C53.0796 12.967 52.7101 13.3365 52.7101 15.0666V41.5049H44.8995C45.1851 41.2361 45.4538 40.9674 45.7394 40.6986C46.4784 39.9932 47.2511 39.2709 47.9734 38.515C48.5949 37.8768 48.6284 37.0873 48.0574 36.4994C47.4863 35.9115 46.6632 35.9283 46.0417 36.5498C44.4292 38.1287 42.7327 39.8252 40.8347 41.7568C40.23 42.3783 40.1964 43.1342 40.7675 43.7053C42.4472 45.4185 44.2109 47.1822 46.1425 49.0971C46.6968 49.6346 47.4023 49.6346 48.0238 49.0971C48.2925 48.8619 48.4605 48.5428 48.4773 48.19C48.4941 47.8205 48.3597 47.451 48.0742 47.1486C47.587 46.6111 47.0495 46.0904 46.5456 45.5697L46.5288 45.5529C46.2769 45.301 46.0417 45.0658 45.7898 44.8139C45.6722 44.6963 45.5546 44.5619 45.4202 44.4275H52.7101V51.4486C52.7101 57.9826 52.7101 64.5334 52.7101 71.0674C52.7101 72.5119 53.1468 72.9654 54.6081 72.9654H55.364C56.7077 72.9654 58.2363 72.9822 59.7144 72.9486C60.1847 72.9486 60.3359 73.0662 60.4199 73.5365C61.3605 78.9955 65.6101 83.1275 71.2538 84.0682C71.8753 84.1689 72.4968 84.2193 73.1351 84.2193C77.7038 84.2193 82.1886 81.5486 84.2882 77.5846C85.1784 75.9049 85.7495 74.4939 85.9007 72.6799C85.9679 71.7729 85.9511 71.0842 85.9175 70.2107C85.8671 69.1357 85.5312 67.8592 85.2456 67.0193ZM83.146 71.7393C83.0788 74.2756 81.9366 76.7783 79.9882 78.6092C78.0566 80.44 75.5034 81.4479 72.9503 81.3807C67.3066 81.2295 62.8218 76.6439 62.973 71.1682C63.0402 68.3799 64.1656 65.8268 66.114 63.9623C67.9952 62.1818 70.4812 61.1908 73.1351 61.1908C73.2359 61.1908 73.3367 61.1908 73.4206 61.1908C76.1081 61.258 78.5941 62.4002 80.4081 64.3654C82.2558 66.3643 83.2132 68.9678 83.146 71.7393ZM73.0679 32.8881C78.5773 32.8881 83.0956 37.356 83.146 42.8654C83.1628 45.5865 82.1382 48.1564 80.2402 50.0713C78.3421 51.9861 75.8058 53.0443 73.0847 53.0443H73.0679C67.5417 53.0443 63.0066 48.526 62.973 42.983C62.9562 40.3123 63.9976 37.7928 65.8788 35.8779C67.7937 33.9463 70.33 32.8881 73.0343 32.8713V32.8041L73.0679 32.8881ZM73.0847 24.7416C70.3972 24.7416 67.8777 23.717 65.9964 21.8525C64.0648 19.9545 63.0066 17.4182 62.973 14.6971C62.9562 12.0264 63.9808 9.49003 65.8956 7.57519C67.7937 5.66034 70.33 4.58534 73.0343 4.55175H73.1183C78.5941 4.55175 83.0956 9.01972 83.146 14.5291C83.1796 17.2334 82.155 19.7865 80.2738 21.7182C78.3925 23.6498 75.873 24.7248 73.1855 24.7416H73.0847Z" fill="#78A5F1"/>
<path d="M34.5512 40.0436C32.6363 38.4647 30.2848 37.776 27.1605 37.8768C25.5984 37.9272 25.3465 38.0448 24.9098 39.5733C24.3891 41.4042 23.8684 43.2182 23.3309 45.1163L22.8102 46.9303C22.743 46.8127 22.6758 46.6952 22.6086 46.5776L22.575 46.5272C22.2727 45.9897 22.0207 45.5362 21.7352 45.0827C21.4832 44.6963 21.4496 44.3268 21.6344 43.8229C22.0039 42.7647 22.3566 41.6057 22.7766 40.1444C22.9445 39.5733 22.8941 39.0694 22.6254 38.6999C22.3566 38.3471 21.9031 38.1456 21.3152 38.1288C19.8539 38.0952 18.3086 38.0952 16.6289 38.1288C16.0074 38.1456 15.5539 38.3303 15.2852 38.6999C15.0164 39.0694 14.966 39.5733 15.134 40.178C15.2012 40.4299 15.2684 40.6819 15.3355 40.9338C15.5371 41.6729 15.7387 42.4456 16.0746 43.151C16.6625 44.3436 16.1754 45.217 15.5875 46.2081C15.5035 46.3424 15.4195 46.4936 15.3355 46.6448V46.628C15.2684 46.4264 15.2348 46.292 15.1844 46.1409C14.6133 43.9573 14.059 41.7737 13.4879 39.5901C13.1016 38.0784 12.8328 37.8768 11.2707 37.8768H11.1363C10.4813 37.8768 9.80938 37.8768 9.1375 37.9104C4.03125 38.1792 0 42.412 0 47.5686C0 52.3053 0.0167969 57.042 0.0167969 61.7788V65.6253C0.0167969 67.221 0.470313 67.6745 2.04922 67.6745C7.72656 67.6745 13.3871 67.6745 19.0645 67.6745C24.7418 67.6745 30.4023 67.6745 36.0797 67.6745C37.6754 67.6745 38.1289 67.2377 38.1289 65.642C38.1289 64.1303 38.1289 62.6186 38.1457 61.1069V60.4518C38.1625 56.2526 38.1625 51.9022 38.1625 47.5686C38.1625 44.5452 36.9363 42.0088 34.5512 40.0436ZM18.9637 42.9831L18.3422 40.9842H19.5852L18.9637 42.9831ZM35.3238 63.8952V64.567V64.819H2.83867V64.0967C2.83867 62.5682 2.83867 61.0397 2.83867 59.5112V59.0745C2.83867 55.2952 2.83867 51.3815 2.83867 47.535C2.83867 45.6034 3.59453 43.8565 4.97188 42.5799C6.4332 41.2194 8.43203 40.5475 10.5988 40.6819C10.7164 40.6819 10.9684 40.9842 11.0188 41.1858C11.657 43.5374 12.2785 45.9225 12.8832 48.2405L13.3871 50.1553C13.4039 50.2225 13.4207 50.2897 13.4543 50.3737C13.4879 50.4913 13.5215 50.592 13.5383 50.7096C13.7063 51.4319 14.1262 51.8518 14.7813 51.9358C15.4195 52.0198 15.9234 51.7174 16.2762 51.0288L16.6457 50.3233C17.2336 49.1811 17.9055 47.8877 18.5605 46.6616C18.6445 46.4936 18.7957 46.3592 18.9301 46.2081C18.9637 46.1745 18.9805 46.1577 19.0141 46.1241C19.0309 46.1409 19.0645 46.1745 19.0813 46.2081C19.2156 46.3592 19.35 46.4936 19.434 46.6448C20.1227 47.8542 20.8785 49.1979 21.8023 50.8608C22.1215 51.4319 22.5246 52.0198 23.3477 51.9526C24.2211 51.8854 24.5234 51.1967 24.725 50.5417C24.9938 49.601 25.2625 48.6604 25.5145 47.7198L25.5648 47.535C26.1359 45.5026 26.7406 43.3862 27.3117 41.2866C27.4461 40.7827 27.6309 40.6483 28.1516 40.6483H28.1852C30.2176 40.6651 32.0484 41.4377 33.3754 42.7983C34.6856 44.1588 35.391 45.9729 35.3574 47.9213C35.2734 51.6502 35.2902 55.4295 35.307 59.0913L35.3742 59.1081H35.307C35.3238 60.603 35.3238 62.2827 35.3238 63.8952Z" fill="#78A5F1"/>
<path d="M18.2564 36.7355C18.4579 36.7523 18.6427 36.7523 18.8443 36.7523C23.2451 36.7523 27.0747 33.6113 27.9818 29.2945C28.2337 28.0684 28.2673 26.775 28.3009 25.532C28.3009 25.3137 28.3177 25.0785 28.3177 24.8602V24.8266V24.7594C28.3345 24.0035 28.2673 22.5758 28.1665 21.5008C27.7298 16.6129 23.7322 12.9008 18.8779 12.8672C18.8443 12.8672 18.8275 12.8672 18.7939 12.8672C16.4759 12.8672 14.2587 13.7238 12.5287 15.2859C10.7818 16.8648 9.70678 19.0484 9.50521 21.4168C9.32045 23.5836 9.30365 25.784 9.47162 27.9508C9.80756 32.7379 13.5029 36.4332 18.2564 36.7355ZM18.8107 15.6891C18.9451 15.6891 19.0962 15.6891 19.2306 15.7059C22.506 15.9074 25.2103 18.6117 25.3783 21.8871C25.4287 22.8781 25.4622 24.3059 25.4622 24.7594V24.8098C25.4622 24.8434 25.4622 24.8602 25.4622 24.877C25.4622 25.0953 25.4454 25.2969 25.4454 25.5152C25.4287 26.5398 25.4119 27.598 25.2439 28.6059C24.7064 31.8309 21.8173 34.1488 18.4915 33.9809C15.0818 33.8129 12.3943 31.2094 12.2431 27.934C12.1423 25.868 12.0751 23.4156 12.3775 21.0473C12.7806 17.9902 15.5521 15.6891 18.8107 15.6891Z" fill="#78A5F1"/>
<path d="M77.5668 10.75C77.0965 10.6996 76.5254 10.9851 76.2062 11.2707C75.0977 12.2449 74.0226 13.2191 72.8973 14.2605L72.8805 14.2773C72.5277 14.5964 72.175 14.9324 71.8223 15.2515C71.6711 15.0836 71.5031 14.9156 71.3519 14.7476L71.3016 14.6972C70.8312 14.1765 70.3777 13.6894 69.9074 13.2023C69.2523 12.5304 68.4293 12.4296 67.8246 12.9504C67.5391 13.1855 67.3879 13.5046 67.3711 13.8574C67.3375 14.2773 67.5223 14.7308 67.875 15.1171C68.6812 16.0242 69.5379 16.948 70.4785 17.939C70.9152 18.3925 71.3016 18.6109 71.7047 18.6109C72.091 18.6109 72.4773 18.4261 72.9309 18.0062C73.7539 17.2671 74.5769 16.5113 75.3664 15.7722L76.1391 15.0668C76.3406 14.882 76.5422 14.714 76.7437 14.5293C77.2476 14.0757 77.7684 13.6222 78.2219 13.1015C78.541 12.732 78.7258 12.0937 78.625 11.6234C78.5578 11.2707 78.0035 10.7836 77.5668 10.75Z" fill="#78A5F1"/>
<path d="M76.5617 67.5899C76.3434 67.7243 76.1586 67.9091 75.9738 68.077L75.8899 68.1442C74.8821 69.0513 73.891 69.9751 72.8664 70.9157L71.8082 71.8899C71.6403 71.7052 71.4891 71.5372 71.3211 71.3692L71.2875 71.3356C70.8172 70.8317 70.3805 70.3614 69.927 69.8911C69.2047 69.152 68.4321 69.0513 67.7938 69.656C67.1723 70.227 67.2059 71.0333 67.8946 71.806C68.6504 72.6458 69.4567 73.536 70.4477 74.5774C70.918 75.0813 71.3043 75.2997 71.7074 75.2997C72.077 75.2997 72.4801 75.0981 72.9672 74.6614C74.0926 73.6536 75.218 72.6122 76.3098 71.6044L76.7969 71.1509C76.9145 71.0501 77.0321 70.9493 77.1328 70.8317L77.1664 70.8149C77.5696 70.4454 77.9895 70.0591 78.3758 69.656C78.9301 69.0681 78.9133 68.3626 78.359 67.7747C77.8551 67.2204 77.2168 67.1532 76.5617 67.5899Z" fill="#78A5F1"/>
<path d="M71.639 39.5551C70.9 38.8328 70.1273 38.7656 69.489 39.3703C69.1867 39.6559 69.0523 40.0254 69.0691 40.3949C69.1027 40.7645 69.2875 41.1508 69.6402 41.5035C69.9762 41.8563 70.3457 42.1922 70.732 42.5449C70.8832 42.6793 71.0344 42.8137 71.1855 42.9648C71.0176 43.116 70.8664 43.2504 70.7152 43.3848C70.3121 43.7375 69.9426 44.0734 69.5898 44.4262C68.9347 45.098 68.8676 45.9211 69.4387 46.509C70.0265 47.1137 70.8328 47.0801 71.5215 46.425C71.8742 46.0891 72.2101 45.7363 72.5965 45.3164C72.7308 45.1652 72.882 44.9973 73.0332 44.8461C73.1676 44.9805 73.2851 45.1148 73.4027 45.2324L73.4363 45.266C73.7722 45.6187 74.0746 45.9547 74.4105 46.2738C74.864 46.7105 75.3008 46.9457 75.7039 46.9457C76.023 46.9457 76.3254 46.8113 76.6109 46.5426C76.8965 46.2738 77.0476 45.9547 77.0476 45.6188C77.0476 45.182 76.8293 44.7285 76.359 44.2582C76.0398 43.9391 75.7039 43.6367 75.3512 43.3008C75.2168 43.1832 75.0824 43.0656 74.948 42.9313C75.0992 42.7801 75.2504 42.6457 75.4015 42.5113C75.7879 42.1418 76.1406 41.8395 76.4597 41.5035C77.182 40.7645 77.2492 39.9582 76.6445 39.3535C76.3758 39.068 76.0398 38.9336 75.7039 38.9336C75.3008 38.9336 74.8808 39.1352 74.5113 39.5215C74.1586 39.8742 73.8394 40.2605 73.5035 40.6805L73.4867 40.6973C73.3691 40.8484 73.2515 40.9828 73.1172 41.134C72.9492 40.9492 72.798 40.7812 72.6469 40.6133C72.2773 40.2437 71.975 39.891 71.639 39.5551Z" fill="#78A5F1"/>
</svg>
