<svg width="86" height="86" viewBox="0 0 86 86" fill="none" xmlns="http://www.w3.org/2000/svg">
<path d="M48.5086 9.96055C56.7055 11.5898 63.5586 15.7387 68.9 22.2895C69.1016 22.5246 69.3031 22.7766 69.5383 22.9445C69.891 23.1965 70.2941 23.2805 70.6805 23.1629C71.0836 23.0453 71.4195 22.743 71.6043 22.323C71.8562 21.7016 71.6211 21.2313 71.1676 20.6602C68.1777 16.9145 64.5832 13.8406 60.5183 11.5059C55.2105 8.46563 49.9195 6.88672 44.3766 6.66836C38.0273 6.41641 31.7789 8.01211 25.7824 11.4051C20.6426 14.3109 16.4265 18.2414 13.2519 23.0789C10.682 26.9926 9.00233 31.175 8.24647 35.5086C8.09529 36.3988 7.74256 36.9867 6.56678 36.9027C5.72694 36.8523 4.8535 36.8523 4.01365 36.8691C3.39217 36.8691 2.73709 36.8859 2.09881 36.8691C2.04842 36.8691 1.99803 36.8691 1.94764 36.8691C0.889435 36.8691 0.284747 37.2387 0.133575 37.9441C0.0831847 38.2297 0.0831847 38.4145 0.150372 38.6496C0.167169 38.7168 0.251153 38.868 0.301544 38.952C1.41014 40.85 2.53553 42.7313 3.64412 44.6293C4.92069 46.7961 6.19725 48.9797 7.49061 51.1465C7.92733 51.8855 8.44803 52.2887 8.95194 52.2887C9.45584 52.2887 9.95975 51.9023 10.3797 51.1801C12.916 46.8969 15.1836 43.0504 17.3 39.4223C17.7199 38.7 17.8039 38.0617 17.5519 37.5914C17.3 37.1379 16.6953 36.8859 15.8722 36.8859C14.814 36.8859 13.739 36.8859 12.664 36.8859C12.1769 36.8859 11.6898 36.8859 11.2027 36.8859H10.8332L10.8668 36.5164C10.8668 36.4492 10.8836 36.382 10.8836 36.3316C10.8836 36.2141 10.9004 36.1133 10.9172 36.0125C11.8242 31.2422 13.7558 26.8582 16.6953 22.9781C20.5922 17.8215 25.6984 13.9918 31.8965 11.6066C37.5234 9.42305 43.1 8.88555 48.5086 9.96055ZM13.8566 39.7918L8.98553 48.0895L4.09764 39.7918H13.8566Z" fill="#78A5F1"/>
<path d="M32.8893 65.7926H32.9061C37.4916 65.7758 42.1611 65.7758 46.6795 65.7758C48.5775 65.7758 50.4756 65.7758 52.3904 65.7758H52.6592C53.0119 65.7758 53.3647 65.7758 53.7174 65.759C55.5483 65.6246 56.808 64.3816 56.9256 62.5676C56.9592 61.8789 56.9592 61.1566 56.9256 60.4176C56.8416 59.0234 56.0186 57.9988 54.658 57.5789C54.4397 57.5117 54.2213 57.4613 53.9693 57.4109C53.8518 57.3773 53.7174 57.3605 53.5998 57.327L53.3311 57.2598V56.991C53.3311 56.4703 53.3311 55.9496 53.3311 55.4289C53.3311 54.3035 53.3311 53.1277 53.3311 51.9855C53.3143 49.6676 52.8104 47.8199 51.7522 46.3586C51.1811 45.5691 50.5428 44.8469 49.8541 44.091C49.5518 43.7551 49.2326 43.4023 48.9303 43.0496L48.7119 42.7977L49.0479 42.5121C49.1486 42.4281 49.283 42.3105 49.4342 42.193C51.433 40.6141 52.6256 38.6824 53.0119 36.4652C53.2135 35.3063 53.2471 34.0801 53.2807 32.9043C53.2975 32.518 53.2975 32.1148 53.3143 31.7285C53.3479 31.0902 53.3311 30.4352 53.3311 29.7969C53.3311 29.5113 53.3311 29.2258 53.3311 28.9402V28.6715L53.5998 28.6043C56.2537 27.9996 56.976 27.1094 56.976 24.4387V24.2875C56.976 24.1699 56.976 24.0523 56.976 23.9348C56.9424 21.4488 55.6322 20.1387 53.1631 20.1387C51.0635 20.1387 48.9639 20.1387 46.8811 20.1387H44.1432C43.0178 20.1387 41.8924 20.1387 40.767 20.1387C39.6584 20.1387 38.533 20.1387 37.4076 20.1387C35.8623 20.1387 34.3002 20.1387 32.7549 20.1387C30.5881 20.1555 29.2275 21.4488 29.11 23.5988C29.0764 24.3211 29.0932 25.0266 29.1772 25.732C29.3283 27.059 30.2858 28.1172 31.6295 28.4027C31.8647 28.4531 32.1334 28.4867 32.4022 28.5371C32.5365 28.5539 32.6877 28.5707 32.8389 28.6043L33.1244 28.6547V30.5023C33.1244 31.6781 33.1244 32.8371 33.1244 33.9961C33.1244 36.3477 33.7627 38.3969 35.0057 40.043C35.5096 40.7148 36.0975 41.3027 36.719 41.941C36.9877 42.2266 37.2733 42.5121 37.5588 42.8145L37.7268 42.9824L37.626 43.184C37.6092 43.2176 37.542 43.3352 37.4244 43.4191C34.4514 45.6195 33.0572 48.6094 33.1412 52.5734C33.158 53.5812 33.158 54.5555 33.158 55.5969C33.158 56.0672 33.158 56.5543 33.158 57.0414V57.3773H32.8221C31.3775 57.3941 30.3865 57.8477 29.7147 58.8219C28.858 60.0648 28.9084 63.0883 29.7986 64.3312C30.4201 65.3391 31.4279 65.7926 32.8893 65.7926ZM31.9822 25.6648L31.9486 25.3625C31.8479 24.2203 31.8143 23.6996 32.1334 23.3469C32.4525 22.9941 32.9565 22.9941 33.9811 22.9941H52.5248C53.2639 22.9941 53.6334 22.9941 53.8854 23.2629C54.1541 23.5316 54.1373 23.918 54.1373 24.6738C54.1373 24.8082 54.1373 24.9258 54.1373 25.077V25.6648H31.9822ZM35.9631 34.7688C35.8959 33.4586 35.9127 32.1652 35.9295 30.7879C35.9295 30.1832 35.9463 29.5617 35.9463 28.9402V28.6043H50.4588V28.9402C50.4588 29.4609 50.4588 29.9984 50.4588 30.5191C50.4588 31.8461 50.4756 33.2234 50.442 34.5672C50.4252 35.1383 50.3244 35.7598 50.1061 36.4652C49.2158 39.4383 46.31 41.5715 43.3033 41.5715C43.0682 41.5715 42.8162 41.5547 42.5643 41.5211C38.8522 41.1012 36.1311 38.3129 35.9631 34.7688ZM35.7615 57.0078C35.8119 56.2352 35.8455 55.4457 35.8623 54.6898C35.9127 52.9934 35.9631 51.2297 36.3326 49.5668C37.0549 46.2746 40.2127 44.175 44.0256 44.4773C47.2338 44.7293 50.0725 47.5008 50.358 50.6586C50.4924 52.1199 50.4588 53.6148 50.4252 55.0594C50.4084 55.7145 50.3916 56.3863 50.3916 57.0582V57.3941H35.7279L35.7615 57.0078ZM31.8983 61.4086C31.8983 61.2406 31.8983 61.0727 31.8983 60.8879V60.2664H54.0701L54.0869 60.5688C54.1877 61.7445 54.2213 62.282 53.8854 62.6348C53.5662 62.9875 53.0455 62.9875 52.0377 62.9875H45.8565H33.4436C32.7717 62.9875 32.4022 62.9875 32.1502 62.7355C31.8983 62.4836 31.8983 62.1309 31.8983 61.4086Z" fill="#78A5F1"/>
<path d="M72.6103 63.2227C75.3146 59.225 77.0951 54.7906 77.9349 50.0203C78.0525 49.3316 78.4052 49.0461 79.0939 49.0629C80.8576 49.0965 82.5876 49.0797 84.0658 49.0629C84.8888 49.0629 85.4767 48.8109 85.7287 48.3574C85.9806 47.9207 85.8966 47.2824 85.4767 46.5938C83.0076 42.3945 80.7232 38.4977 78.4724 34.6848C78.0861 34.0297 77.5822 33.6602 77.0783 33.6602C76.5576 33.6602 76.0537 34.0297 75.6505 34.7184C73.5341 38.3129 71.2666 42.1594 68.7302 46.4762C68.2935 47.2152 68.1927 47.8871 68.4447 48.3406C68.6966 48.7941 69.3013 49.0461 70.158 49.0461C71.1994 49.0461 72.2408 49.0461 73.3158 49.0461H75.113L75.0962 49.3988C75.0962 49.4996 75.0962 49.5668 75.0962 49.634C75.0962 49.7516 75.0962 49.8355 75.0794 49.9363C74.3572 53.7324 72.9798 57.2766 70.981 60.5184C67.5377 66.0781 62.6834 70.3949 56.5357 73.3344C51.2951 75.8539 46.0544 76.8953 40.9314 76.4586C32.3986 75.7363 24.9744 72.0914 18.8435 65.6246C18.4572 65.2047 18.0709 64.768 17.7181 64.3313C17.399 63.9617 17.0798 63.5586 16.7439 63.2059C16.4584 62.9035 16.0888 62.7523 15.7193 62.7523C15.4505 62.7523 15.1986 62.8363 14.9466 62.9875C14.3923 63.357 14.174 64.0793 14.4427 64.6504C14.5771 64.9359 14.7787 65.1879 15.0138 65.4734C19.297 70.7812 24.7392 74.6949 31.1388 77.1137C36.1275 78.9949 41.1498 79.7004 46.0377 79.1965C50.8919 78.6926 55.5951 77.1977 59.9959 74.7285C65.1693 71.8395 69.4021 67.9762 72.6103 63.2227ZM72.1568 46.241L77.0615 37.893L81.9662 46.241H72.1568Z" fill="#78A5F1"/>
</svg>
