<svg width="86" height="86" viewBox="0 0 86 86" fill="none" xmlns="http://www.w3.org/2000/svg">
<path d="M84.1683 54.3223C82.6734 51.7524 80.389 49.72 77.7351 48.6114C76.9792 48.2922 76.7609 47.9563 76.7609 47.1501C76.7945 39.0876 76.8281 30.7731 76.7609 22.5258C76.7273 19.536 75.5683 16.7141 73.4855 14.6145C71.4027 12.5149 68.6144 11.3391 65.6582 11.3391C45.7875 11.2887 26.1351 11.3223 11.2363 11.3391C6.75153 11.3391 2.6195 14.1946 0.939808 18.4442C0.587074 19.3176 0.0663704 20.6446 0.0663704 21.7028C-0.00081706 34.1829 -0.0512077 47.0829 0.200745 55.6829C0.200745 55.8172 0.234339 56.002 0.234339 56.1364C0.82223 60.7723 5.10543 65.677 11.925 65.677C11.9418 65.677 11.9754 65.677 11.9922 65.677C22.4062 65.6266 33.005 65.6434 43.2511 65.6434C48.2902 65.6434 53.4972 65.6434 58.6203 65.6434C59.1746 65.6434 59.5105 65.6938 59.7793 66.3153C60.9214 69.0868 62.9035 71.3376 65.4902 72.8493C67.5898 74.0754 69.9414 74.6969 72.3601 74.6969C72.9144 74.6969 73.4687 74.6633 74.023 74.5961C80.1707 73.8739 84.9242 69.07 85.848 62.6368C86.2511 59.8485 85.6632 56.8922 84.1683 54.3223ZM3.1066 32.7215V26.4227H73.7542V32.7215H3.1066ZM3.05621 39.3059V36.3161C3.05621 36.2153 3.07301 36.0977 3.07301 35.9801C3.07301 35.9297 3.08981 35.8793 3.08981 35.829H73.7542V47.486C69.3367 47.1501 65.6078 48.5106 62.6347 51.5004C59.6617 54.5071 58.3683 58.2864 58.7546 62.7208H58.066C53.85 62.7208 49.6507 62.7208 45.4347 62.7208C34.3992 62.7208 22.9941 62.7208 11.757 62.7208C7.59137 62.7208 4.26559 60.2012 3.29137 56.2876C3.1234 55.6493 3.05621 55.011 3.03942 54.3895C3.05621 49.3672 3.05621 44.261 3.05621 39.3059ZM3.1234 23.3657C2.88825 21.1821 3.56012 19.0321 5.02145 17.302C6.49957 15.5215 8.68317 14.4129 10.9675 14.2786C11.2867 14.2618 11.6058 14.2618 11.8914 14.2618H22.339C36.3308 14.2618 50.7929 14.2618 65.0367 14.2618C69.2191 14.2618 72.5617 16.7141 73.5527 20.4934C73.7207 21.1149 73.7878 21.77 73.8382 22.4418C73.8718 22.7442 73.8886 23.0465 73.939 23.3657H3.1234ZM64.6671 68.6165C62.6347 66.584 61.5093 63.8965 61.5093 61.0579C61.5093 55.179 66.2964 50.375 72.1585 50.375H72.1753C78.0878 50.375 82.9253 55.1622 82.9253 61.0579C82.9253 63.9301 81.8167 66.6176 79.8011 68.6501C77.7855 70.6825 75.098 71.7911 72.2425 71.7911C69.3871 71.7743 66.6996 70.6489 64.6671 68.6165Z" fill="#78A5F1"/>
<path d="M9.1377 45.6219C10.9014 45.6219 12.6986 45.6219 14.4287 45.6219H15.8397C16.5115 45.6219 17.1834 45.6219 17.8553 45.6219C18.4432 45.6219 19.0479 45.6219 19.6525 45.6219C20.6436 45.6219 21.6346 45.6219 22.6088 45.6051C23.499 45.5883 24.1037 45.0004 24.1037 44.1605C24.1037 43.3879 23.5494 42.8168 22.676 42.716C22.5416 42.6992 22.3904 42.6992 22.2561 42.6992H20.1061C16.6123 42.6992 13.001 42.6992 9.45684 42.6992C9.1545 42.6992 8.71778 42.716 8.38184 42.884C7.76036 43.1863 7.49161 43.7406 7.64278 44.4797C7.79395 45.2355 8.31465 45.6219 9.1377 45.6219Z" fill="#78A5F1"/>
<path d="M28.9745 45.6224C29.4617 45.6224 29.9488 45.6392 30.4359 45.6392C30.8054 45.6392 31.1749 45.6392 31.5277 45.6392C31.8972 45.6392 32.2667 45.6392 32.6363 45.6392C32.989 45.6392 33.3417 45.6392 33.6945 45.6392C34.5007 45.6392 35.3406 45.6392 36.1636 45.6392C37.2218 45.6224 37.8433 45.1185 37.8769 44.245C37.8937 43.8419 37.7593 43.4892 37.5074 43.2204C37.205 42.9013 36.7515 42.7333 36.1804 42.7333C33.7281 42.7165 31.3093 42.7165 28.9913 42.7333C27.9835 42.7501 27.3284 43.3212 27.3284 44.1946C27.3117 45.0513 27.9499 45.6056 28.9745 45.6224Z" fill="#78A5F1"/>
<path d="M75.5507 66.5658C75.8867 66.885 76.2394 67.0529 76.6089 67.0529C76.9449 67.0529 77.264 66.9186 77.5496 66.6498C78.1207 66.0955 78.1543 65.1885 77.6168 64.5502C77.4152 64.315 77.1968 64.1135 76.9953 63.8951C76.9281 63.8279 76.8609 63.7608 76.7937 63.6936C76.1722 63.0721 75.5507 62.4506 74.9125 61.8291L74.1566 61.0733L75.114 60.1158C75.8027 59.4272 76.4746 58.7721 77.1296 58.117C77.7007 57.5459 78.0031 56.9748 78.0031 56.4541C78.0031 56.1014 77.8687 55.799 77.5832 55.5303C77.2976 55.2615 76.9953 55.1104 76.6593 55.1104C76.6425 55.1104 76.6425 55.1104 76.6257 55.1104C76.105 55.1272 75.5507 55.4631 74.9628 56.1014C74.3582 56.7565 73.7703 57.3947 73.0984 58.117L72.1242 59.1584C71.7882 58.7889 71.4691 58.4193 71.15 58.0666C70.3941 57.21 69.6718 56.4205 68.916 55.6479C68.496 55.2279 67.9585 55.0264 67.4546 55.1272C67.0011 55.2111 66.6148 55.5303 66.43 55.9838C66.1613 56.6221 66.2957 57.21 66.8668 57.7811C67.6394 58.5537 68.4121 59.3264 69.2183 60.099L70.1925 61.0565C69.8566 61.3924 69.5039 61.7283 69.1847 62.0643C68.3953 62.8537 67.6394 63.5928 66.9003 64.3486C66.5308 64.735 66.3292 65.1717 66.3292 65.6084C66.3292 65.9947 66.4972 66.3475 66.7828 66.633C67.421 67.2545 68.1937 67.1537 68.9496 66.3979C69.6886 65.6588 70.4109 64.9197 71.1835 64.1471C71.5027 63.8111 71.8386 63.492 72.1746 63.1561C72.5273 63.5088 72.8632 63.8615 73.1992 64.1975C73.9718 65.0037 74.7445 65.7932 75.5507 66.5658Z" fill="#78A5F1"/>
</svg>
