<svg width="86" height="86" viewBox="0 0 86 86" fill="none" xmlns="http://www.w3.org/2000/svg">
<path d="M85.7783 16.9637C85.5431 16.2078 84.804 15.8383 83.9978 16.0398C83.1579 16.2582 82.9564 16.9469 82.8556 17.6523C82.8556 17.7027 82.8388 17.7531 82.822 17.8203C82.8052 17.8707 82.8052 17.9379 82.7884 17.9883C82.2005 22.1539 80.5208 25.6812 77.7997 28.4695C73.8861 32.4672 69.8716 36.4984 65.9747 40.3785C64.379 41.9742 62.7665 43.5699 61.1708 45.1824C61.07 45.2832 60.9861 45.3672 60.8685 45.4344C60.331 45.8375 59.6759 45.9383 59.0712 45.7199C58.4665 45.5016 58.0298 44.9809 57.8786 44.3258C57.7107 43.6035 57.929 42.982 58.5841 42.327C62.0947 38.8164 65.538 35.3898 68.4271 32.5008C68.8302 32.0977 69.0822 31.6777 69.1325 31.2746C69.1997 30.8547 69.0486 30.4684 68.7462 30.166C68.0743 29.4941 67.3017 29.5949 66.4115 30.4684C66.2939 30.5859 66.1931 30.6867 66.0755 30.8043L62.2626 34.6172C58.8361 38.0438 55.4095 41.4703 51.9661 44.8969C51.3111 45.5519 50.6392 45.9047 50.0177 45.9047C49.5642 45.9047 49.1611 45.7199 48.7915 45.3504C47.6829 44.225 48.4388 42.9988 49.2786 42.1758L53.4779 37.9766C56.5013 34.9531 59.5079 31.9465 62.5314 28.923C62.7329 28.7215 62.9681 28.4863 63.1529 28.2176C63.5728 27.5961 63.5056 26.941 62.9681 26.4203C62.4642 25.9332 61.8427 25.8828 61.238 26.2523C60.9693 26.4203 60.7341 26.6555 60.5157 26.8738L60.4654 26.9242C57.9962 29.3934 55.5439 31.8457 53.0747 34.3148C49.9001 37.4895 46.7255 40.6641 43.5509 43.8387C43.299 44.0906 43.0134 44.3594 42.6943 44.5777C42.0224 45.0312 41.2665 44.9977 40.5611 44.4937C39.8892 44.0234 39.6372 43.2844 39.8892 42.5621C40.0404 42.1086 40.3595 41.6383 40.729 41.252C45.197 36.7504 49.7658 32.1984 54.1665 27.7809L58.5001 23.4473C58.7185 23.2289 58.9368 23.0105 59.1216 22.7586C59.5919 22.1203 59.5415 21.4316 58.9872 20.8941C58.4665 20.3902 57.7947 20.3398 57.19 20.7766C56.9548 20.9445 56.7533 21.1461 56.5517 21.3477L56.5013 21.398C53.1251 24.7742 49.749 28.1504 46.3728 31.5266L41.8208 36.0785L41.7033 36.1961C41.5521 36.3473 41.4009 36.5152 41.2329 36.6496C40.6283 37.1703 39.6876 37.2711 39.0158 36.9016C38.2599 36.4984 37.9072 35.709 38.1255 34.9027C38.2599 34.4156 38.579 33.8949 38.999 33.4582C44.1892 28.2344 49.4802 22.9434 54.6033 17.8371L57.5427 14.8977C57.6771 14.7633 57.7947 14.6457 57.9458 14.5113C57.9794 14.4945 57.9962 14.4609 58.0298 14.4441C58.0466 14.4609 58.0466 14.4777 58.0634 14.4945C58.1642 14.6289 58.2314 14.7465 58.3154 14.8641C60.1294 17.9043 62.7665 19.9703 66.1427 21.0117C69.0486 21.902 71.9712 21.8348 74.8267 20.7934C75.7505 20.4574 76.1704 19.7352 75.9017 18.9289C75.6497 18.1395 74.8771 17.8203 73.9197 18.0891C73.8357 18.1059 73.7517 18.1395 73.6677 18.173C73.6173 18.1898 73.5669 18.2066 73.5165 18.2234C68.1079 19.9703 62.5146 17.4676 60.2134 12.2941C59.6759 11.0848 58.8529 10.5641 57.5427 10.5977C54.704 10.648 51.8654 10.6312 49.1275 10.5977C48.3884 10.5977 47.7333 10.2953 47.3134 9.75781C46.9103 9.23711 46.7759 8.58203 46.9271 7.89336C47.1622 6.85195 48.0525 6.24727 49.3458 6.24727C53.965 6.24727 58.5841 6.24727 63.1865 6.24727H70.6611C71.4505 6.24727 72.0216 6.0793 72.3575 5.74336C72.5927 5.5082 72.7103 5.18906 72.7103 4.80273C72.7103 3.84531 72.0216 3.3918 70.6443 3.3918C63.64 3.3918 56.6525 3.375 49.6482 3.375C49.2954 3.375 48.8419 3.375 48.3884 3.42539C47.1622 3.54297 45.9697 4.19805 45.113 5.23945C44.2732 6.28086 43.87 7.57422 44.0044 8.80039C44.3236 11.5551 46.2216 13.3355 48.9763 13.4363C50.1857 13.4867 51.4118 13.4699 52.6044 13.4699C53.2091 13.4699 53.797 13.4699 54.4017 13.4699C54.6033 13.4699 54.788 13.4699 54.9224 13.4867C54.8888 13.5203 54.8552 13.5539 54.8216 13.5875C54.6536 13.7387 54.4857 13.8898 54.3513 14.0242C49.0603 19.3152 43.3997 24.9758 37.0337 31.3418C36.6474 31.7281 36.3618 32.0473 36.1267 32.3496C34.7661 34.0965 34.7997 36.5488 36.2107 38.1781C36.6138 38.6316 37.1009 39.018 37.588 39.3707C37.756 39.5051 37.9407 39.6395 38.1087 39.7738C36.4794 42.1926 36.5298 44.4937 38.2431 46.2742C38.999 47.0805 39.9396 47.5508 41.0314 47.702C42.7615 47.9371 44.2228 47.3324 45.6673 45.7871C46.5072 47.45 47.9013 48.525 49.5474 48.7434C49.749 48.777 49.9505 48.777 50.1689 48.777C51.6806 48.777 53.1419 48.0379 54.2505 46.6941C54.4857 46.4086 54.7208 46.0895 54.9392 45.7871C54.9896 45.7199 55.04 45.6527 55.0736 45.5855C55.9134 47.2316 57.2908 48.3234 58.9033 48.5922C60.5829 48.8777 62.313 48.2395 63.6568 46.8453C67.2849 43.0828 71.0642 39.3371 74.7259 35.709C76.1536 34.298 77.5814 32.8703 79.0091 31.4426C81.8142 28.6375 83.7794 25.4461 84.8208 21.9691C85.2408 20.5582 85.5599 19.2984 85.7615 18.0891C85.8454 17.6859 85.8958 17.2996 85.7783 16.9637Z" fill="#78A5F1"/>
<path d="M24.5051 53.5129C25.0258 53.4121 25.5633 53.2945 26.084 53.177C27.5957 52.8242 28.4859 51.7492 28.4691 50.3215C28.4523 48.9441 27.5453 47.8859 26.1008 47.5332C25.5297 47.3988 24.9418 47.2812 24.3875 47.1805C24.0684 47.1133 23.7324 47.0629 23.4133 46.9957C20.2555 46.3406 18.391 44.5266 17.7527 41.4695C17.6855 41.1672 17.6184 40.8648 17.568 40.5625C17.4504 39.9578 17.316 39.3195 17.1648 38.698C16.7953 37.1023 15.7371 36.1953 14.3094 36.1953C12.8816 36.2121 11.8234 37.1527 11.4707 38.7316C11.2859 39.5883 11.118 40.4449 10.9668 41.184C10.3285 44.4762 8.41367 46.391 5.12148 47.0293L4.68477 47.1133C3.99609 47.2477 3.29062 47.382 2.58516 47.55C1.09023 47.9027 0.149609 48.9777 0.132812 50.3719C0.132812 51.766 1.05664 52.8578 2.56836 53.2105C3.07227 53.3281 3.59297 53.4289 4.09687 53.5297C4.61758 53.6305 5.15508 53.7313 5.65898 53.8656C8.39688 54.5207 10.127 56.2172 10.7988 58.9215C10.95 59.5262 11.0676 60.1309 11.1852 60.7355C11.2691 61.1891 11.3699 61.6426 11.4707 62.0961C11.8066 63.6078 12.8648 64.5316 14.2758 64.5484C14.2926 64.5484 14.3094 64.5484 14.3094 64.5484C15.7035 64.5484 16.7617 63.6582 17.1145 62.1465C17.232 61.6258 17.3496 61.0883 17.4504 60.5844C17.5512 60.0805 17.652 59.5598 17.7695 59.0559C18.4414 56.2676 20.1883 54.5039 22.9766 53.8488C23.4973 53.7145 24.018 53.6137 24.5051 53.5129ZM14.6453 59.8789C14.5781 60.198 14.4941 60.534 14.4102 60.8531C14.3934 60.9371 14.3598 61.0211 14.343 61.1051C13.8055 58.4344 13.184 55.7133 11.0844 53.6137C9.00156 51.5309 6.33086 50.859 3.69375 50.3215C3.76094 50.3047 3.82812 50.2879 3.91211 50.2711C4.43281 50.1535 4.98711 50.0191 5.50781 49.9184C10.2277 48.9945 12.7473 46.5086 13.8895 41.6039C14.0406 40.9824 14.1918 40.2938 14.3262 39.6555C14.4102 39.9914 14.4773 40.3441 14.5613 40.6801C14.6285 40.9656 14.6957 41.2512 14.7629 41.5031C15.6195 45.1984 17.0137 47.2477 19.5836 48.5578C20.7426 49.1457 22.0359 49.4816 23.2789 49.8176C23.7492 49.9352 24.2363 50.0695 24.7066 50.2207C24.8578 50.2711 25.009 50.3047 25.177 50.3551C24.4715 50.5398 23.8164 50.7078 23.1109 50.859C18.9957 51.8164 16.7953 53.5465 15.502 56.8219C15.1156 57.7961 14.8805 58.8543 14.6453 59.8789Z" fill="#78A5F1"/>
<path d="M43.9199 64.5319C43.5672 64.448 43.2145 64.3808 42.8785 64.3304C42.3578 64.2296 41.8371 64.1288 41.3164 63.9944C39.3008 63.4569 37.9906 62.1636 37.4531 60.148C37.3691 59.8288 37.302 59.5097 37.2348 59.1905C37.1844 58.9722 37.1508 58.7538 37.1004 58.5187C37.0668 58.4011 37.05 58.2667 37.0164 58.1491C36.9324 57.7292 36.8316 57.3093 36.6805 56.8894C36.3277 55.8647 35.3871 55.2097 34.3121 55.1761C33.1867 55.1593 32.1789 55.8647 31.8598 56.9062C31.675 57.5108 31.5574 58.1155 31.423 58.7202C31.3223 59.1905 31.2215 59.6776 31.1039 60.148C30.5832 62.1132 29.3066 63.3897 27.3078 63.9608C26.9719 64.0616 26.6359 64.112 26.3 64.1792C26.048 64.2296 25.7793 64.28 25.5273 64.3304C25.4266 64.3472 25.3258 64.3808 25.225 64.3976C24.7547 64.4983 24.2676 64.6159 23.8309 64.8007C22.8734 65.2038 22.3359 66.0269 22.3359 67.1355C22.3359 68.2608 22.8902 69.1175 23.8645 69.4534C24.7043 69.7558 25.6113 69.9237 26.468 70.1085L26.6191 70.1421C29.2562 70.6628 30.7344 72.1409 31.2719 74.778C31.3055 74.9628 31.3391 75.1308 31.3727 75.3155C31.4902 75.9202 31.6078 76.5417 31.7926 77.1464C32.1453 78.339 33.0523 79.078 34.2449 79.0948C34.2617 79.0948 34.2785 79.0948 34.2953 79.0948C35.4543 79.0948 36.4285 78.3222 36.7812 77.1296C36.966 76.5081 37.0836 75.8698 37.2012 75.2315L37.2852 74.8284C37.8059 72.1577 39.3008 70.6628 41.9715 70.1253C42.8617 69.9573 43.7687 69.7726 44.6422 69.4702C45.5996 69.1511 46.2547 68.1769 46.2379 67.1019C46.2379 65.8421 45.3477 64.8511 43.9199 64.5319ZM41.8707 67.169C39.9559 67.6394 38.2426 68.2272 36.8484 69.6046C35.4711 70.9819 34.7992 72.6616 34.3121 74.7276C33.4891 70.478 31.0199 67.9921 26.8207 67.1522C31.0031 66.2956 33.4723 63.8433 34.2953 59.6944C35.1687 63.8937 37.6547 66.346 41.8707 67.169Z" fill="#78A5F1"/>
<path d="M28.133 29.0404C28.5529 29.074 29.0568 29.074 29.4432 29.074C29.6111 29.074 29.7623 29.074 29.8799 29.074H30.1486C30.2998 29.074 30.4846 29.074 30.6693 29.074C31.0389 29.074 31.442 29.0572 31.8283 29.0236C32.5674 28.9396 33.0041 28.4357 33.0041 27.6631C33.0041 26.8904 32.5842 26.3529 31.8955 26.3193C30.6189 26.2521 29.3256 26.2354 28.0658 26.3025C27.3435 26.3361 26.89 26.8904 26.9236 27.6967C26.9404 28.4693 27.3939 28.9732 28.133 29.0404Z" fill="#78A5F1"/>
<path d="M19.2474 29.0398C19.6674 29.0734 20.1041 29.0734 20.524 29.0566C20.7088 29.0566 20.8935 29.0566 21.0783 29.0566C21.2631 29.0566 21.4478 29.0566 21.6326 29.0734C21.8174 29.0734 22.0021 29.0902 22.1869 29.0902C22.4221 29.0902 22.674 29.0902 22.9092 29.0566C23.6482 28.9895 24.1017 28.4855 24.1185 27.7297C24.1521 26.9402 23.6818 26.3691 22.9764 26.3355C21.7334 26.2684 20.4568 26.2684 19.1635 26.3355C18.4412 26.3691 17.9877 26.9402 18.0213 27.7297C18.0549 28.4688 18.5252 28.9727 19.2474 29.0398Z" fill="#78A5F1"/>
<path d="M24.1198 33.8458C24.1702 34.6185 24.6741 35.1056 25.4636 35.156C25.4972 35.156 25.5308 35.156 25.5644 35.156C26.3034 35.156 26.8409 34.7025 26.8745 34.0138C26.9585 32.7708 26.9585 31.4775 26.8745 30.1841C26.8241 29.4618 26.253 28.9915 25.4636 29.0251C24.6741 29.0587 24.1702 29.5458 24.103 30.3185C24.0694 30.7216 24.0862 31.1415 24.0862 31.5279C24.0862 31.7126 24.0862 31.8806 24.0862 32.0654C24.0862 32.2333 24.0862 32.4181 24.0862 32.5861C24.103 33.0228 24.103 33.4427 24.1198 33.8458Z" fill="#78A5F1"/>
<path d="M9.80801 69.1184C9.77441 68.2953 9.28731 67.8082 8.46426 67.7074C8.11152 67.6738 7.77559 67.7746 7.49004 68.0266C7.1877 68.2953 7.00293 68.6817 6.98613 69.1016C6.95254 70.1766 6.95254 71.302 6.98613 72.4274C7.01973 73.2336 7.62441 73.8383 8.39707 73.8383C8.41387 73.8383 8.43066 73.8383 8.43066 73.8383C9.22012 73.8215 9.77441 73.2168 9.80801 72.3602C9.82481 71.9906 9.8248 71.6211 9.8248 71.2684C9.8248 71.1004 9.8248 70.9492 9.8248 70.7813V70.7645C9.8248 70.6133 9.8248 70.4453 9.8248 70.2942C9.8248 69.9078 9.82481 69.5047 9.80801 69.1184Z" fill="#78A5F1"/>
<path d="M25.4963 26.3018C25.5131 26.3018 25.5131 26.3018 25.5299 26.3018C26.2857 26.3018 26.8904 25.7139 26.9408 24.874C26.9744 24.5045 26.9576 24.135 26.9576 23.7654C26.9576 23.5975 26.9576 23.4463 26.9576 23.2783V23.144C26.9576 23.0096 26.9576 22.8752 26.9576 22.7408C26.9576 22.3377 26.9744 21.9346 26.9408 21.5147C26.9072 21.0779 26.7225 20.7084 26.4369 20.4565C26.1682 20.2381 25.8154 20.1205 25.4459 20.1541C24.6229 20.2213 24.1357 20.742 24.1189 21.565C24.0854 22.7072 24.0854 23.7822 24.1189 24.8068C24.1357 25.6803 24.7068 26.285 25.4963 26.3018Z" fill="#78A5F1"/>
<path d="M14.5618 73.8224C14.1418 73.8056 13.6883 73.8056 13.302 73.8056C13.134 73.8056 12.9829 73.8056 12.8317 73.8056V73.9735L12.8149 73.8056C12.3782 73.7888 11.7063 73.7888 11.152 73.8056C10.3625 73.856 9.87544 74.3095 9.79146 75.0821C9.75786 75.4853 9.85864 75.8716 10.0938 76.1571C10.3122 76.4259 10.6313 76.5771 11.0008 76.5938C11.5887 76.6274 12.1598 76.6442 12.7477 76.6442C13.386 76.6442 14.0243 76.6274 14.6625 76.5771C15.4184 76.5267 15.9055 75.9556 15.8719 75.1325C15.8383 74.3599 15.3512 73.856 14.5618 73.8224Z" fill="#78A5F1"/>
<path d="M9.80615 79.6836C9.80615 79.4988 9.80615 79.3309 9.80615 79.1461C9.80615 78.743 9.82295 78.3398 9.78936 77.9367C9.73896 77.1473 9.15107 76.5762 8.37842 76.5762C7.60576 76.5762 7.00107 77.1641 6.96748 77.9367C6.91709 79.0789 6.91709 80.2211 6.96748 81.3465C7.00107 82.1191 7.58897 82.6902 8.37842 82.6902C9.15107 82.6902 9.72217 82.1359 9.78936 81.3465C9.82295 80.9602 9.80615 80.557 9.80615 80.1875C9.80615 80.0195 9.80615 79.8516 9.80615 79.6836Z" fill="#78A5F1"/>
<path d="M6.98572 75.1319C6.93533 74.3425 6.44822 73.8722 5.65877 73.8218C5.25565 73.7882 4.85252 73.805 4.4494 73.805C4.26463 73.805 4.07986 73.805 3.8951 73.805C3.72713 73.805 3.55916 73.805 3.40799 73.805C3.02166 73.805 2.63533 73.7882 2.23221 73.8218C1.44276 73.8722 0.938849 74.3425 0.888458 75.1151C0.854865 75.5351 0.972443 75.9214 1.2076 76.1901C1.40916 76.4253 1.71151 76.5765 2.06424 76.5933C2.68572 76.6437 3.32401 76.6604 3.96229 76.6604C4.56697 76.6604 5.18846 76.6437 5.79315 76.5933C6.5658 76.5261 7.03611 75.955 6.98572 75.1319Z" fill="#78A5F1"/>
<path d="M22.3051 76.3398C21.9355 76.3398 21.566 76.4742 21.2973 76.743C21.0117 77.0117 20.8438 77.3812 20.8438 77.734C20.8438 78.1035 20.9781 78.4563 21.2469 78.725C21.5156 78.9938 21.8852 79.1617 22.2715 79.1617C22.6578 79.1617 23.0105 79.0105 23.2793 78.7586C23.548 78.4898 23.6824 78.1203 23.6824 77.734C23.6488 76.9949 23.0441 76.3734 22.3051 76.3398Z" fill="#78A5F1"/>
<path d="M31.8781 42.1426C31.475 42.1426 31.1055 42.277 30.8367 42.5625C30.568 42.8313 30.4336 43.184 30.4336 43.5703C30.4504 44.3262 31.0551 44.9645 31.8109 44.9812C31.8277 44.9812 31.8277 44.9812 31.8445 44.9812C32.1973 44.9812 32.5668 44.8301 32.8355 44.5613C33.1211 44.2758 33.2723 43.9062 33.2723 43.5535C33.2555 42.7809 32.634 42.1594 31.8781 42.1426Z" fill="#78A5F1"/>
<path d="M43.0309 58.3513C43.4172 58.3513 43.7867 58.2001 44.0555 57.9481C44.3242 57.6794 44.4586 57.3435 44.4586 56.9571C44.4586 56.5876 44.3074 56.2181 44.0219 55.9493C43.7363 55.6806 43.3668 55.5294 42.9973 55.5462C42.2582 55.563 41.6367 56.2181 41.6367 56.9739C41.6367 57.7466 42.2414 58.3681 42.9973 58.3681C43.0141 58.3513 43.0141 58.3513 43.0309 58.3513Z" fill="#78A5F1"/>
<path d="M23.0629 56.0327C22.6934 56.0159 22.3406 56.1502 22.0551 56.419C21.7695 56.6877 21.6184 57.0573 21.6016 57.4436C21.6016 57.8299 21.7359 58.1827 21.9879 58.4346C22.2566 58.7034 22.6094 58.8545 23.0125 58.8545H23.0293C23.7852 58.8545 24.3898 58.2666 24.4234 57.5108C24.4402 57.1412 24.3059 56.7717 24.0371 56.4862C23.802 56.2174 23.4324 56.0494 23.0629 56.0327Z" fill="#78A5F1"/>
</svg>
