<svg width="86" height="86" viewBox="0 0 86 86" fill="none" xmlns="http://www.w3.org/2000/svg">
<path d="M85.8478 4.82053C85.915 4.28303 85.747 3.81272 85.4111 3.49358C85.0583 3.15764 84.5376 3.04006 83.9833 3.15764C83.513 3.24162 83.0595 3.3424 82.5892 3.42639C80.54 3.81272 78.4068 4.21584 76.3912 4.82053C71.5033 6.28186 67.556 8.85178 64.6501 12.4631C64.2974 12.8998 63.9783 13.3365 63.6423 13.8069C63.4911 14.0252 63.3232 14.2436 63.172 14.4619L63.0376 14.6467L62.8529 14.5123C62.6009 14.3276 62.3658 14.1596 62.1306 13.9748C61.6099 13.5885 61.1228 13.219 60.6189 12.883C59.8294 12.3455 59.04 11.8416 58.2841 11.4049C49.7849 6.44983 40.7818 4.80373 31.5267 6.53381C15.8048 9.47326 3.76146 21.5838 0.872397 37.4065L0.838804 37.5744C0.570054 39.0022 0.301304 40.4635 0.200523 41.9248C0.0997413 43.2518 0.116538 44.6459 0.217319 46.0905C0.234116 46.3088 0.26771 46.5272 0.301304 46.7287C0.318101 46.8127 0.318101 46.8967 0.334898 46.9807C0.418882 47.5518 0.486069 48.1229 0.53646 48.694C0.670835 49.8865 0.822007 51.1127 1.05716 52.2885C2.95521 61.3924 7.47357 68.783 14.4779 74.2756C24.9423 82.4893 36.6665 84.824 49.3146 81.2295C56.2349 79.2643 62.2146 75.5354 67.0857 70.1604C73.8044 62.7362 77.1638 53.7834 77.0462 43.6045C76.979 37.4569 75.3833 31.4604 72.3095 25.783C72.1751 25.5479 72.0744 25.3127 71.9904 25.1447C71.9568 25.0944 71.94 25.044 71.9232 25.0104L71.8224 24.8256L72.0072 24.7248C72.6119 24.3553 73.2165 24.0194 73.8212 23.6834C75.1146 22.9612 76.3408 22.2725 77.4326 21.4158C82.2533 17.6869 85.0079 12.2447 85.8478 4.82053ZM3.35833 41.5385C3.5263 36.6338 5.18919 31.2588 8.06146 26.4045C11.3201 20.8783 15.9392 16.3768 21.3982 13.4205L21.5494 13.3365L21.6669 13.4709C23.1618 15.117 24.1193 16.8807 24.5056 18.7283C24.6904 19.585 24.5728 20.492 24.472 21.3654C24.4384 21.735 24.388 22.1045 24.3712 22.4572C24.3376 22.894 24.304 23.3475 24.2704 23.7842C24.1865 24.6576 24.1193 25.5647 24.1361 26.4549C24.1697 27.5803 23.7497 28.4873 22.8091 29.4279C22.5572 29.6799 22.2884 29.9151 22.0365 30.167C21.3478 30.8221 20.6423 31.4772 20.0712 32.233C19.4665 33.0393 18.9962 34.0135 18.7779 34.9877C18.5931 35.7772 18.2572 36.7346 17.2493 37.1881C16.9974 37.3057 16.7286 37.4233 16.4767 37.5408C14.713 38.3639 12.8822 39.2037 11.0009 39.8252C9.33802 40.3795 7.59115 40.7994 5.91146 41.2026C5.1724 41.3873 4.41654 41.5721 3.66068 41.7569L3.37513 41.8408L3.35833 41.5385ZM43.3349 79.4322C41.7224 79.6842 40.0763 79.8186 38.4302 79.8186C32.8033 79.8186 27.0587 78.3572 21.8517 75.5522C14.965 71.8569 9.48919 66.0115 6.44896 59.1248L6.33138 58.8729L6.60013 58.8057C7.22162 58.6713 7.8263 58.5369 8.43099 58.4026C9.77474 58.1002 11.1521 57.7979 12.5294 57.5291C15.9728 56.8908 18.8619 56.6557 21.6165 56.8069C22.3052 56.8405 23.0443 56.9412 23.8169 57.0756C25.5134 57.3779 26.6892 58.285 27.3947 59.8471C28.856 63.0553 30.4685 66.3811 32.1986 69.7405C33.3911 72.0752 35.1548 73.9229 37.4224 75.2162C38.7997 76.0057 40.1099 76.8623 41.504 77.7694C42.1255 78.1725 42.7806 78.5924 43.4357 79.0291L43.9396 79.3483L43.3349 79.4322ZM62.4329 70.7147C62.0634 71.0002 61.7107 71.2858 61.3579 71.5713C60.5853 72.1928 59.863 72.7807 59.0904 73.3182C55.9326 75.569 52.422 77.2654 48.6427 78.3908C48.4244 78.458 48.2228 78.4916 48.038 78.4916C47.7021 78.4916 47.3997 78.3908 47.0638 78.1557C44.2587 76.2408 41.2521 74.2252 38.1783 72.26C36.6665 71.2858 35.5076 69.9252 34.4997 67.9264C32.8368 64.6342 31.3587 61.6612 30.015 58.6209C28.8728 56.051 26.8908 54.6065 23.7833 54.0858C20.9279 53.6155 17.854 53.6994 14.0747 54.3377C12.2103 54.6569 10.329 55.06 8.51498 55.4463C7.69193 55.6311 6.85209 55.799 6.02904 55.9838C5.87787 56.0174 5.74349 56.0342 5.59232 56.0678L5.1724 56.1518L5.10521 55.967C3.87904 52.5069 3.22396 48.9123 3.13998 45.0154V44.8307L3.32474 44.7803C4.0806 44.5955 4.81966 44.4276 5.55873 44.2428C7.18802 43.8565 8.88451 43.4533 10.5138 43.0166C12.9661 42.3615 15.8384 41.4713 18.4587 39.8588C20.2896 38.7334 21.3142 37.3561 21.6669 35.4916C21.8181 34.7022 22.4228 33.9799 22.9603 33.3416C23.0275 33.2576 23.0947 33.1905 23.1451 33.1065C23.6154 32.5522 24.1193 31.9979 24.6064 31.4772C25.1943 30.8389 25.8158 30.167 26.3533 29.4783C26.6556 29.092 26.8572 28.4537 26.9244 27.7315C27.1427 25.128 27.3107 22.3565 27.4619 19.2658C27.5458 17.603 26.7732 16.1248 26.0341 14.7139L25.8493 14.3444C25.5806 13.8405 25.2615 13.3365 24.9087 12.8326C24.7408 12.5807 24.5728 12.3119 24.388 12.0432L24.2369 11.808L24.5056 11.7072C24.8919 11.5729 25.2615 11.4217 25.631 11.2873C26.4204 10.985 27.2267 10.6658 28.0497 10.4307C34.0126 8.68381 39.8412 8.36467 45.3841 9.49006C50.7927 10.5819 56.0669 13.0846 61.0724 16.9143C61.3412 17.1158 61.5931 17.603 61.5259 17.9389C61.2572 19.0811 60.9548 20.2401 60.6525 21.3654C60.5517 21.735 60.4509 22.1213 60.3501 22.4908L60.2829 22.7428L60.0646 22.6588C59.9974 22.642 59.8798 22.6252 59.8126 22.5244C56.9236 19.0139 52.9091 16.6959 47.5173 15.4194C46.3919 15.1506 45.149 14.9322 43.738 14.7307C43.0662 14.6467 42.5454 14.7643 42.2095 15.0834C41.8736 15.4194 41.7392 15.9737 41.8232 16.7127C42.3607 21.3655 43.9396 25.1447 46.6607 28.2522C49.2642 31.242 52.7244 33.0393 56.9236 33.6104C57.629 33.7112 58.3345 33.7615 59.0904 33.8119C59.4431 33.8455 59.8126 33.8623 60.1822 33.8959L60.3837 33.9127V34.1143C60.3837 34.2822 60.3837 34.4334 60.4005 34.6014C60.4173 35.0045 60.4173 35.4076 60.3669 35.8108C60.3165 36.1299 59.9974 36.449 59.7119 36.6002C59.1072 36.9362 58.5025 37.2553 57.8978 37.5576C56.8732 38.0783 55.8318 38.6326 54.8576 39.2373C51.8173 41.1354 51.0447 42.899 51.7165 46.5104C51.8677 47.3166 52.0357 48.1229 52.1869 48.9123L52.2708 49.3155C52.6236 51.0119 52.2036 52.5405 51.7165 53.9346C50.3224 57.8987 50.7759 61.6947 53.0771 65.2221C54.0849 66.7674 55.7646 67.5401 57.4107 68.2959L57.6794 68.4135C58.6872 68.867 59.7119 69.2701 60.8036 69.7069C61.3076 69.9084 61.8283 70.11 62.349 70.3115L62.7185 70.4627L62.4329 70.7147ZM60.2494 30.8053L60.0142 30.8221C59.7286 30.8389 59.4431 30.8389 59.1576 30.8389C55.9494 30.8389 53.0099 29.8479 50.5912 27.9162C47.8197 25.699 45.9048 22.3733 45.0818 18.2748L45.0146 17.9725L45.3337 18.0061C49.1298 18.51 52.6908 19.9713 55.3447 22.1213C58.1665 24.4057 59.863 27.3283 60.2158 30.5533L60.2494 30.8053ZM72.3095 34.5342C72.3935 34.5006 72.4775 34.5174 72.5447 34.5174C72.5615 34.5174 72.5951 34.5174 72.6119 34.5342L72.7798 34.551L72.8134 34.7022C73.8044 38.3975 74.2411 41.8408 74.1236 45.217C73.9892 49.0803 73.3005 52.8092 72.0576 56.303C70.5962 60.4014 68.379 64.1639 65.5236 67.4729C65.3388 67.6744 64.9693 67.8256 64.6501 67.8256C64.5829 67.8256 64.5158 67.8256 64.4486 67.8088C61.5259 67.0362 59.0064 65.9947 56.7388 64.6006C55.9997 64.1471 55.2943 63.3576 54.9247 62.5346C53.6314 59.7127 53.5306 57.042 54.6224 54.6233C55.7478 52.1541 55.3783 49.7018 54.8576 47.199C54.6896 46.3424 54.5552 45.4354 54.488 44.5115C54.4208 43.5541 54.7736 42.8151 55.5294 42.3615L60.3501 39.4557L60.3669 39.8252C60.3837 39.9764 60.3837 40.1108 60.4005 40.2283C60.4173 40.4467 60.4341 40.5979 60.4341 40.749C60.4341 42.4287 60.4341 44.1084 60.4341 45.7881V48.4924C60.4341 48.5596 60.4341 48.61 60.4341 48.6772C60.4341 48.8619 60.4341 49.0467 60.4509 49.2315C60.5349 50.0713 61.1228 50.6424 61.8954 50.6424C61.9122 50.6424 61.929 50.6424 61.9458 50.6424C62.7185 50.6256 63.2896 50.0377 63.34 49.2315C63.3736 48.5596 63.3736 47.8541 63.3568 47.1822C63.3568 46.9135 63.3568 46.6447 63.3568 46.376C63.3568 45.7545 63.3568 45.1162 63.3568 44.4947C63.3568 42.7143 63.3568 40.8666 63.3736 39.0526C63.3736 38.7166 63.5751 38.1455 63.9111 37.9944C66.2458 37.0033 68.631 36.0459 70.949 35.1221L72.3095 34.5342ZM71.8896 31.5276L63.3736 34.9373V25.8334L64.6165 25.7158C65.8091 25.5983 67.0353 25.4807 68.2279 25.3967C68.4966 25.3799 68.8326 25.6151 68.9501 25.8334C69.6892 27.2612 70.4115 28.6553 71.1673 30.1334L71.8896 31.5276ZM64.4318 22.7596C64.1798 22.7596 63.9279 22.7596 63.6759 22.7428H63.424L63.4576 22.4908C63.7431 20.0217 64.5662 17.7877 65.9435 15.6377C68.3622 11.892 72.0576 9.2549 77.2478 7.57522C78.3564 7.22248 79.5322 6.93694 80.6576 6.66819C81.1783 6.55061 81.7158 6.41623 82.2365 6.28186L82.5556 6.19787L82.522 6.53381C81.5142 14.6971 75.5345 22.7596 64.4318 22.7596Z" fill="#78A5F1"/>
<path d="M61.8613 54.4551C61.0719 54.4551 60.4336 55.1102 60.4336 55.8996C60.4336 56.2859 60.5848 56.6555 60.8703 56.9242C61.1559 57.2098 61.5254 57.3609 61.9285 57.3609C62.7348 57.3609 63.3395 56.7562 63.3395 55.9332C63.3395 55.5469 63.1883 55.1773 62.9027 54.8918C62.6172 54.623 62.2477 54.4551 61.8613 54.4551Z" fill="#78A5F1"/>
</svg>
