<svg width="86" height="86" viewBox="0 0 86 86" fill="none" xmlns="http://www.w3.org/2000/svg">
<g clip-path="url(#clip0_2205_6923)">
<path d="M81.5469 35.4582C81.7484 35.4582 81.95 35.475 82.1852 35.4918C82.3027 35.4918 82.4203 35.5086 82.5547 35.5086L82.8738 35.5254V42.6473H85.7461V35.1391C85.0742 33.241 83.7809 32.4348 81.5637 32.5355C80.4719 32.5859 79.3465 32.5859 78.2715 32.5691L78.2547 32.3172V32.5691C77.5492 32.5691 76.8102 32.5523 76.1047 32.5691C75.584 32.5691 75.0801 32.4852 74.8113 31.6957C74.4586 30.7047 74.0219 29.6465 73.4844 28.4707C73.2156 27.8828 73.2828 27.4629 73.7531 27.0094C75.2313 25.5648 76.6758 24.1203 78.0531 22.7094L78.0867 22.6758C79.6824 21.0633 79.6992 19.2324 78.1203 17.6535C74.8953 14.3949 71.6199 11.1195 68.3781 7.91133C66.8328 6.38281 64.9012 6.39961 63.3391 7.92812C62.0625 9.18789 60.5508 10.6828 59.0055 12.2617C58.552 12.732 58.132 12.7992 57.5441 12.5305C56.3516 11.9762 55.2934 11.5562 54.3191 11.2035C53.5969 10.9516 53.4457 10.498 53.4625 9.91016C53.4793 9.18789 53.4625 8.46562 53.4625 7.74336C53.4457 6.65156 53.4457 5.52617 53.4961 4.43437C53.5633 3.14102 53.1602 1.91484 52.4043 1.12539C51.85 0.554297 51.1613 0.251953 50.3887 0.251953C47.0461 0.251953 41.1672 0.251953 37.2199 0.251953H35.7754C34.9355 0.251953 34.1965 0.571094 33.6254 1.15898C32.8863 1.94844 32.4832 3.14102 32.5504 4.45117C32.6008 5.55977 32.6008 6.66836 32.584 7.76016V7.79375C32.584 8.49922 32.5672 9.22148 32.584 9.94375C32.584 10.4645 32.5 10.9684 31.7105 11.2371C30.7195 11.5898 29.6613 12.0098 28.4855 12.5641C27.8977 12.8328 27.4777 12.7488 27.0242 12.2953C25.6469 10.8844 24.2191 9.47344 22.8418 8.11289L22.741 8.01211C21.0949 6.38281 19.2137 6.38281 17.5844 7.99531C14.2418 11.3211 11 14.5629 7.94297 17.6367C6.31367 19.266 6.33047 21.0801 7.94297 22.7262L8.41328 23.2133C9.65625 24.473 10.9328 25.7664 12.2262 27.0094C12.8477 27.6141 12.7301 28.1348 12.5117 28.6219C12.0246 29.6633 11.5879 30.7215 11.2184 31.7797C11 32.3844 10.6473 32.6363 9.99219 32.6195C7.67422 32.5859 5.57461 32.5859 3.60938 32.6195C1.67773 32.5859 0.317188 33.9633 0.266797 35.9117C0.25 36.8187 0.25 37.7258 0.25 38.616V38.6328C0.25 39.0359 0.25 39.4391 0.25 39.859V42.5969H3.18945V35.4582H6.63281C8.27891 35.4582 9.99219 35.4582 11.6887 35.4582C12.6797 35.4582 13.0492 35.1894 13.4355 34.1984C14.1914 32.3004 15.0145 30.3184 15.8711 28.3027C16.2742 27.3621 16.1902 26.8414 15.5184 26.1527C14.477 25.0945 13.402 24.0195 12.2934 22.9277L12.075 22.7094C11.5543 22.1887 11.0504 21.6848 10.5297 21.1641C10.3449 20.9793 10.177 20.8113 10.0258 20.6434L10.009 20.6266C9.95859 20.5762 9.9082 20.5258 9.85781 20.4754L9.63945 20.2402L20.2551 9.62461L22.1027 11.4219C23.3625 12.6816 24.7734 14.1262 26.1508 15.4867C26.873 16.1922 27.3602 16.2762 28.368 15.8562C30.4844 14.9492 32.3656 14.1598 34.1125 13.4879C35.2379 13.0512 35.473 12.7152 35.473 11.5562C35.473 9.89336 35.473 8.24726 35.473 6.58437V3.2082H50.523V6.51719C50.523 8.14648 50.523 9.75898 50.523 11.3883C50.523 12.7824 50.7246 13.0344 52.1355 13.5719C53.8824 14.227 55.6461 14.9492 57.3426 15.7219C58.7199 16.3434 59.0559 16.293 60.0973 15.2684L65.7242 9.6582L76.3566 20.3074L74.509 22.1383C73.1988 23.4316 71.8551 24.7754 70.5113 26.1191C69.7723 26.8582 69.6883 27.3621 70.1418 28.4035C71.0152 30.4191 71.7879 32.2836 72.4766 34.0809C72.9133 35.223 73.266 35.475 74.3914 35.475C75.8191 35.475 77.2469 35.475 78.6914 35.475H79.0441C79.884 35.4582 80.707 35.4582 81.5469 35.4582Z" fill="#78A5F1"/>
<path d="M81.5289 85.7495C81.5625 85.7495 81.6129 85.7495 81.6465 85.7495C83.8301 85.7495 85.0899 84.9432 85.7282 83.146V70.985C85.0395 69.171 83.6957 68.3815 81.4114 68.4151C77.7665 68.4655 74.0543 68.4655 70.4766 68.4487C68.6793 68.4487 66.8485 68.4319 65.0176 68.4487C62.5485 68.4487 61.3055 69.7085 61.2887 72.1608C61.2887 75.1002 61.2719 78.3085 61.2887 81.987C61.2887 84.5065 62.5317 85.7327 65.0512 85.7327C66.6973 85.7327 68.3434 85.7327 70.0063 85.7327C71.5012 85.7327 73.0297 85.7327 74.5582 85.7327C77.2961 85.6991 79.5133 85.7159 81.5289 85.7495ZM64.245 82.7596V71.4385H82.7719V82.7596H64.245Z" fill="#78A5F1"/>
<path d="M74.961 64.1305V61.107C74.961 59.4777 74.961 57.8652 74.961 56.2527C74.961 54.5059 74.5411 54.0859 72.7942 54.0859H44.4579V41.5723H41.5353V54.0859H35.6395C28.1817 54.0859 20.7407 54.0859 13.2829 54.0859C13.2157 54.0859 13.1485 54.0859 13.0813 54.0859C12.8798 54.0859 12.6782 54.0859 12.4767 54.1027C11.62 54.2035 11.0993 54.7074 11.0825 55.4465C11.0489 57.6133 11.0489 59.7969 11.0657 61.9133C11.0657 62.6523 11.0657 63.3746 11.0657 64.1137H14.0052V57.059H41.5856V64.1137H44.5083V57.059H72.0888V64.1305H74.961Z" fill="#78A5F1"/>
<path d="M51.7158 68.4465C48.8771 68.4297 45.9713 68.4297 43.0822 68.4297C40.2436 68.4297 37.3713 68.4297 34.3143 68.4465C32.0971 68.4633 30.8037 69.7398 30.7869 71.9402C30.7533 75.1988 30.7533 78.659 30.7869 82.2031C30.8037 84.4371 32.1139 85.7137 34.3814 85.7137C36.4139 85.7137 38.5135 85.7137 40.3611 85.7137H42.9646H45.6018C47.6174 85.7137 49.6162 85.7137 51.6318 85.7137C53.9162 85.7137 55.2432 84.4035 55.26 82.1359C55.2936 78.3734 55.2936 75.0309 55.26 71.957C55.2096 69.7398 53.933 68.4633 51.7158 68.4465ZM52.2365 82.7742H33.76V71.4195H52.2365V82.7742Z" fill="#78A5F1"/>
<path d="M21.1273 68.4465C18.0367 68.4297 15.1813 68.4297 12.4098 68.4297C9.50391 68.4297 6.68203 68.4297 3.82656 68.4465C1.57578 68.4633 0.282422 69.7734 0.265625 72.0746C0.265625 75.4676 0.265625 78.827 0.265625 82.0688C0.265625 84.4035 1.55898 85.6969 3.89375 85.7137C5.87578 85.7137 7.87461 85.7137 9.85664 85.7137H12.4602H15.6012C17.4152 85.7137 19.2125 85.7137 21.0266 85.7137C23.4117 85.7137 24.6715 84.4707 24.6883 82.1191C24.7051 78.8605 24.7051 75.4676 24.6883 72.041C24.6883 69.7398 23.4285 68.4465 21.1273 68.4465ZM21.7488 82.7742H3.23867V71.4195H21.7488V82.7742Z" fill="#78A5F1"/>
<path d="M35.1027 28.8231C37.4879 27.2946 40.1082 26.5219 42.9133 26.5219H42.9469C46.4574 26.5219 49.5648 27.6305 52.2187 29.7973C56.082 32.9719 57.9129 37.2719 57.6777 42.6301H60.6004C60.7851 35.6762 58.148 30.2844 52.773 26.6059C46.8773 22.5747 39.2012 22.5579 33.2047 26.6059C27.8969 30.1836 24.9406 36.2977 25.4613 42.6469H28.3168C28.2496 39.4723 28.6863 37.0872 29.7277 34.954C30.9707 32.3672 32.7847 30.3012 35.1027 28.8231Z" fill="#78A5F1"/>
<path d="M42.9836 35.4758H43.0004C46.1582 35.4926 48.6105 37.9618 48.7113 41.2371C48.7281 41.6235 48.7113 41.993 48.7113 42.3793C48.7113 42.4465 48.7113 42.5305 48.7113 42.5977H51.5668C52.0539 39.1543 50.5086 35.7614 47.6195 33.8969C44.7808 32.0661 40.9175 32.1164 38.23 33.9977C35.3242 36.0301 34.0812 38.852 34.4004 42.5977H37.2894C37.2894 42.5137 37.2894 42.4465 37.2894 42.3793C37.2894 41.9762 37.2894 41.6067 37.2894 41.2204C37.3902 37.9954 39.8929 35.4758 42.9836 35.4758Z" fill="#78A5F1"/>
<path d="M44.4246 7.50781H41.5859V10.3129H44.4246V7.50781Z" fill="#78A5F1"/>
<path d="M21.0773 18.291H18.2891V21.0961H21.0773V18.291Z" fill="#78A5F1"/>
<path d="M67.7242 18.291H64.9023V21.0793H67.7242V18.291Z" fill="#78A5F1"/>
<path d="M10.2949 39.8086H7.52344V42.6137H10.2949V39.8086Z" fill="#78A5F1"/>
<path d="M78.4887 39.8086H75.6836V42.6137H78.4887V39.8086Z" fill="#78A5F1"/>
<path d="M71.3168 75.6523H68.5117V78.491H71.3168V75.6523Z" fill="#78A5F1"/>
<path d="M78.4719 75.6875H75.6836V78.4926H78.4719V75.6875Z" fill="#78A5F1"/>
<path d="M40.8141 75.7031H37.9922V78.4746H40.8141V75.7031Z" fill="#78A5F1"/>
<path d="M48.0199 75.6699H45.2148V78.475H48.0199V75.6699Z" fill="#78A5F1"/>
<path d="M17.4859 75.6523H14.6641V78.4574H17.4859V75.6523Z" fill="#78A5F1"/>
<path d="M10.3285 75.6699H7.52344V78.475H10.3285V75.6699Z" fill="#78A5F1"/>
</g>
<defs>
<clipPath id="clip0_2205_6923">
<rect width="86" height="86" fill="white"/>
</clipPath>
</defs>
</svg>
