<svg width="86" height="86" viewBox="0 0 86 86" fill="none" xmlns="http://www.w3.org/2000/svg">
<path d="M58.2013 13.1848C58.6044 12.832 58.9907 12.3785 58.7892 11.7234C58.6212 11.1355 58.2181 10.8164 57.5462 10.766C56.7063 10.682 55.8665 10.598 55.0267 10.5309C52.9774 10.3293 50.8778 10.1277 48.795 9.95977C48.2239 9.90937 47.9384 9.70781 47.72 9.17031C46.4267 6.09648 45.402 3.76172 44.4278 1.57812L44.3606 1.42695C44.1591 0.956641 43.9239 0.419141 43.4872 0.200781C43.336 0.1 43.1681 0.0664062 43.0001 0.0664062C42.8321 0.0664062 42.6642 0.1 42.5298 0.167188C42.0931 0.402344 41.8579 0.923047 41.6563 1.39336L41.5892 1.54453C40.4302 4.11445 39.3216 6.71797 38.2634 9.2207C38.1122 9.57344 37.9442 9.87578 37.3899 9.92617C35.8614 10.0605 34.3329 10.2117 32.838 10.3461C31.511 10.4805 30.1505 10.598 28.8067 10.7156C28.1349 10.766 27.5302 10.8836 27.2614 11.6227C26.9927 12.3617 27.4294 12.832 27.9501 13.2688C28.7731 13.991 29.5962 14.7133 30.4192 15.4355C31.6958 16.5609 33.006 17.7199 34.2993 18.8453C34.6856 19.1812 34.8872 19.5004 34.736 20.1051C34.2993 21.9191 33.8962 23.7668 33.4931 25.5473C33.2747 26.5047 33.0731 27.4621 32.8548 28.4363C32.7036 29.0746 32.67 29.7297 33.3251 30.1664C33.8962 30.5527 34.4001 30.3848 35.0552 29.9984C35.811 29.5449 36.5669 29.1082 37.306 28.6715C38.8009 27.798 40.3294 26.9078 41.8075 25.9672C42.6977 25.3961 43.3696 25.3961 44.2431 25.9504C46.2923 27.2605 48.5095 28.5707 51.2306 30.0824C51.6001 30.284 52.272 30.3008 52.7255 30.116C53.2294 29.9145 53.4142 29.377 53.2294 28.6715C53.1958 28.5707 53.179 28.4699 53.1622 28.3859C53.1454 28.3188 53.1454 28.2516 53.1286 28.1844C52.9774 27.5125 52.8263 26.8238 52.6751 26.152C52.2384 24.1699 51.7849 22.1207 51.2977 20.1051C51.1466 19.4836 51.3481 19.1645 51.7345 18.8453C53.3134 17.468 54.9259 16.057 56.4712 14.6965C57.0255 14.2094 57.6134 13.6887 58.2013 13.1848ZM54.3212 13.1344C54.2204 13.2352 54.1196 13.3359 54.0356 13.4199C53.8677 13.5711 53.7333 13.7055 53.5989 13.8398C53.2294 14.159 52.8767 14.4781 52.5071 14.7973C51.4153 15.7547 50.3067 16.7457 49.1813 17.7031C48.5431 18.2574 48.3415 18.8285 48.5431 19.6348C48.9126 21.1633 49.2485 22.7086 49.6013 24.3379C49.7524 25.0098 49.8868 25.6816 50.038 26.3703L50.0716 26.5047L49.954 26.4375C49.786 26.3367 49.6517 26.2695 49.5173 26.1855C49.2653 26.0344 49.047 25.9168 48.8454 25.7992C48.4255 25.5473 48.0056 25.2953 47.5688 25.0434C46.3931 24.3547 45.1837 23.6492 44.0247 22.927C43.3192 22.4902 42.6978 22.4902 41.9923 22.927C40.6485 23.75 39.288 24.5395 37.8602 25.3961C37.2724 25.7488 36.6677 26.0848 36.063 26.4543L35.9454 26.5215L36.2478 25.1105C36.4325 24.2203 36.6173 23.3805 36.802 22.5406C36.8524 22.2719 36.9196 22.0199 36.97 21.7512C37.1044 21.0625 37.2556 20.357 37.4571 19.6852C37.7091 18.8621 37.4907 18.2406 36.7685 17.6191C35.727 16.7457 34.7024 15.8219 33.7114 14.9484C33.3251 14.6125 32.9388 14.2598 32.5524 13.9238C32.3845 13.7895 32.2333 13.6383 32.0317 13.4535L31.5614 13.0336L31.6958 13.0168C32.4013 12.9496 33.1067 12.8824 33.7786 12.8152C35.4415 12.6473 37.0036 12.4961 38.5825 12.3785C39.4056 12.3113 39.9095 11.925 40.2622 11.102C40.8669 9.65742 41.4716 8.24648 42.1267 6.75156C42.3954 6.14687 42.6642 5.52539 42.9329 4.90391L42.9833 4.78633L43.0505 4.90391C43.1177 5.05508 43.1849 5.17266 43.252 5.29023C43.3696 5.52539 43.4536 5.71016 43.5376 5.89492L43.9575 6.86914C44.579 8.31367 45.2341 9.7918 45.8556 11.2699C46.1411 11.9586 46.5946 12.2945 47.3001 12.3617C48.9294 12.4961 50.5419 12.6641 52.2384 12.832C52.9102 12.8992 53.5989 12.9664 54.3044 13.0336L54.4388 13.0504L54.3212 13.1344Z" fill="#78A5F1"/>
<path d="M70.8465 53.6645C70.1746 51.0442 68.0414 49.4653 65.1187 49.4653C63.3551 49.4653 61.5914 49.4653 59.8445 49.4653H48.557L48.5906 49.3813C48.641 49.2469 48.6746 49.1293 48.7082 49.0286C48.7754 48.827 48.8258 48.659 48.893 48.4911C50.8078 43.1161 50.7742 37.6907 48.809 32.3829C47.902 29.9137 45.5336 28.57 42.9469 29.0403C41.2672 29.3426 38.8988 31.1063 38.9996 33.4914C39.0668 35.0871 38.8652 36.6996 38.6973 37.9258C38.1934 41.3188 36.5305 44.1575 33.7758 46.3746C32.7848 47.1641 31.7434 47.9368 30.7523 48.6926C29.9125 49.3141 29.0391 49.9692 28.1992 50.6243C27.6617 51.0442 27.1914 51.4977 26.6707 51.9848C26.4355 52.2032 26.2004 52.4215 25.9652 52.6399L25.898 52.7071L25.8645 52.6063C25.159 50.3051 24.5207 49.8348 22.0852 49.8348H18.9273C15.7695 49.8348 12.5949 49.8348 9.43711 49.8348C7.25352 49.8348 6.19531 50.893 6.19531 53.0598C6.19531 56.9063 6.19531 60.7696 6.19531 64.6161V69.2352C6.19531 70.3102 6.19531 71.3852 6.19531 72.4602C6.19531 75.0805 6.19531 77.8016 6.19531 80.4723C6.19531 82.2192 7.30391 83.395 8.9332 83.4118C12.343 83.4286 15.8031 83.4286 19.1625 83.4118C20.4559 83.4118 21.7324 83.4118 23.0258 83.4118C23.9664 83.4118 24.7223 83.0254 25.1926 82.3032C25.4109 81.9672 25.5453 81.5809 25.6965 81.1778C25.7637 80.993 25.8309 80.8082 25.9148 80.6235L25.9316 80.5899H25.9652H25.982C26.0156 80.5899 26.0492 80.5731 26.0828 80.5731C26.0996 80.5731 26.1332 80.5731 26.1668 80.5731C29.459 81.2786 32.0289 82.5719 34.0277 84.5036C34.9852 85.4274 36.077 85.8977 37.3031 85.8977C44.4586 85.9145 52.0676 85.9145 59.5254 85.8977C61.8098 85.8809 63.8926 84.3188 64.598 82.068C65.1691 80.2539 64.85 78.5575 63.6238 76.8778L63.5902 76.8274L63.6406 76.7938C65.1355 75.786 66.0426 74.5766 66.4121 73.0817C66.7816 71.6203 66.4625 70.1422 65.4547 68.5633L65.4211 68.5129L65.4715 68.4793C68.6125 66.027 69.15 63.877 67.5039 60.2657L67.4871 60.2153L67.5375 60.1817C67.5543 60.1649 67.5711 60.1481 67.6047 60.1313C67.6551 60.0977 67.7055 60.0641 67.7559 60.0305C70.2922 58.67 71.5016 56.2344 70.8465 53.6645ZM23.093 80.8082H8.78203V52.4551H23.0762V80.8082H23.093ZM65.6059 57.8973C64.9676 57.9141 64.3125 57.9141 63.691 57.9141C62.868 57.9141 62.0113 57.8973 61.1715 57.9477C60.6508 57.9813 60.0629 58.25 59.7941 58.5692C59.5422 58.8883 59.475 59.2747 59.643 59.661C59.8277 60.0977 60.2309 60.4 60.7012 60.4336C61.1211 60.4672 61.5578 60.4672 61.9609 60.4672C62.1961 60.4672 62.448 60.4672 62.7 60.4672C64.4301 60.5008 65.6562 61.559 65.841 63.1379C66.009 64.5489 64.766 66.2285 63.2879 66.5645C63.0191 66.6317 62.7336 66.5981 62.4648 66.5813L62.3641 66.5645C62.2129 66.5477 62.0449 66.5141 61.8937 66.4973C61.7258 66.4637 61.541 66.4301 61.373 66.4301C60.3988 66.3797 59.8277 66.7996 59.7605 67.5891C59.7102 68.3786 60.2141 68.8825 61.1715 68.9832C62.616 69.1344 63.5734 69.9575 63.8758 71.3012C64.0773 72.1578 63.775 73.1321 63.0695 73.9215C62.3641 74.711 61.4066 75.1141 60.5332 75.0301C60.4324 75.0133 60.3148 74.9965 60.2141 74.9965C59.9117 74.9629 59.6094 74.9125 59.307 74.9293C58.6016 74.9461 58.0641 75.45 58.0641 76.1219C58.0641 76.8442 58.4336 77.2809 59.1223 77.4153C59.2566 77.4489 59.4078 77.4657 59.5422 77.4825C59.7941 77.516 60.0461 77.5496 60.2812 77.6336C61.5914 78.0536 62.448 79.4141 62.2633 80.7746C62.0617 82.32 60.8859 83.3614 59.3406 83.3782C57.325 83.395 55.259 83.395 53.277 83.395C52.4539 83.395 51.6141 83.395 50.791 83.395H48.4394C47.5324 83.395 46.6254 83.395 45.7184 83.395C44.8281 83.395 43.9211 83.395 43.0141 83.395C41.284 83.395 39.5203 83.395 37.7902 83.3614C37.1687 83.3446 36.3289 83.143 35.8586 82.6895C33.3559 80.3547 30.282 78.843 26.4691 78.0703C25.9148 77.9528 25.7469 77.7344 25.7469 77.1969C25.7469 74.3246 25.7469 71.4356 25.7637 68.5633C25.7637 64.8008 25.7637 60.9039 25.7805 57.0743C25.7805 56.7215 25.9484 56.3016 26.1836 56.0832C28.4848 53.9668 30.7355 51.9008 33.0367 49.902C33.423 49.5661 33.8598 49.3141 34.2965 49.0789C34.6996 48.8438 35.1195 48.6086 35.4723 48.3231C39.2348 45.1989 41.2504 41.1844 41.4352 36.3973C41.4519 35.8598 41.5023 35.3391 41.5359 34.8184C41.5527 34.5161 41.5863 34.1969 41.6031 33.8946C41.6871 32.534 42.3254 31.795 43.5516 31.6102C44.8449 31.4254 45.9535 32.0301 46.3902 33.1723C47.4652 35.9774 47.9188 38.8496 47.734 41.7387C47.566 44.5606 46.8438 47.2481 45.6176 49.7172C45.2312 50.4731 45.1641 51.061 45.416 51.4641C45.668 51.8672 46.2391 52.0688 47.1293 52.0688C49.3969 52.0688 51.6477 52.0688 53.9152 52.0688C57.7113 52.0688 61.5242 52.0688 65.3203 52.0688C67.1008 52.0688 68.3941 53.2278 68.4277 54.9075C68.4613 56.5536 67.2519 57.8469 65.6059 57.8973Z" fill="#78A5F1"/>
<path d="M81.8342 21.0303C82.4053 20.5264 82.5733 20.0561 82.3717 19.4682C82.1701 18.9307 81.767 18.662 81.0615 18.5948C80.1041 18.5108 79.1299 18.4268 78.1893 18.326C77.2151 18.2252 76.2072 18.1413 75.2162 18.0573C74.6787 18.0069 74.3764 17.7885 74.1748 17.3014C73.7213 16.1928 73.2342 15.0842 72.7807 14.0092C72.4951 13.3373 72.1928 12.6655 71.9072 11.9768C71.6049 11.2545 71.2018 10.9354 70.6307 10.9186C70.0092 10.9018 69.6061 11.2209 69.2869 11.9936C69.035 12.5815 68.783 13.1862 68.5143 13.7741C68.0272 14.8827 67.5401 16.008 67.0865 17.1502C66.8514 17.7549 66.4819 18.0237 65.81 18.0741C64.8526 18.158 63.8783 18.242 62.9545 18.3428C62.0643 18.4268 61.1404 18.5108 60.2166 18.5948C59.444 18.662 59.024 18.9307 58.8393 19.485C58.6377 20.0561 58.8057 20.5432 59.3936 21.0303C59.8135 21.383 60.2166 21.7694 60.6197 22.1221C61.3924 22.8276 62.2154 23.5666 63.0721 24.2049C64.1135 24.9776 64.3654 25.767 63.9959 27.0268C63.6432 28.2362 63.3912 29.4623 63.1393 30.6549C63.0385 31.1588 62.9377 31.6291 62.8369 32.0995C62.8201 32.7041 63.0553 33.1745 63.4584 33.4264C63.8615 33.6616 64.3655 33.6448 64.8526 33.3592C66.7506 32.2674 68.4303 31.2764 69.9588 30.319C70.194 30.1678 70.4123 30.1006 70.6139 30.1006C70.8322 30.1006 71.0506 30.1846 71.3026 30.3358C72.26 30.9405 73.2678 31.5116 74.2252 32.0827C74.8635 32.4522 75.5018 32.8385 76.1233 33.208C76.7951 33.6112 77.3326 33.7791 77.9205 33.3424C78.5588 32.8721 78.458 32.217 78.3237 31.5788C78.2229 31.0916 78.1053 30.6213 78.0045 30.1342C77.719 28.8409 77.4166 27.4971 77.0975 26.187C76.9463 25.5823 77.0639 25.1959 77.5174 24.8264C78.4748 24.0202 79.4322 23.1635 80.3561 22.3405C80.8264 21.9205 81.3303 21.467 81.8342 21.0303ZM78.0045 20.9967C77.6686 21.2823 77.3662 21.5678 77.0639 21.8534C76.392 22.4581 75.7705 23.0291 75.1155 23.5498C74.326 24.1713 74.1076 24.86 74.3764 25.8342C74.5947 26.6405 74.7627 27.4635 74.9475 28.3538C75.0315 28.7569 75.1155 29.16 75.1994 29.5967L75.233 29.7311L75.1155 29.6639C74.7291 29.4456 74.3764 29.2272 74.0069 29.0256C73.2342 28.5721 72.4951 28.1522 71.7897 27.6819C70.9666 27.1444 70.2612 27.1276 69.4717 27.6651C68.7662 28.1354 68.0272 28.5553 67.2377 29.0088C66.8682 29.2104 66.4987 29.4288 66.1123 29.6639L65.9947 29.7311L66.0283 29.5967C66.1123 29.1768 66.1963 28.7737 66.2803 28.3873C66.4483 27.5475 66.5994 26.7413 66.8346 25.9686C67.1537 24.9104 66.9018 24.1545 66.0283 23.4827C65.3901 22.9956 64.7854 22.4413 64.1639 21.8702C63.8615 21.6014 63.5592 21.3327 63.2401 21.0471L63.1393 20.9463L63.2904 20.9295C63.7104 20.8791 64.1303 20.8456 64.5166 20.7952C65.3901 20.6944 66.2299 20.5936 67.053 20.5768C68.1112 20.5432 68.699 20.1065 69.0686 19.1491C69.3541 18.3596 69.7069 17.587 70.0764 16.7639C70.2444 16.3944 70.4123 16.0248 70.5803 15.6217L70.6307 15.4873L70.6811 15.6217C70.849 16.0248 71.0338 16.4112 71.2018 16.7975C71.5881 17.6709 71.9576 18.494 72.2768 19.3338C72.5959 20.1233 73.1166 20.5096 73.9901 20.56C74.8635 20.6104 75.7369 20.6944 76.6608 20.7952C77.0807 20.8456 77.5174 20.8791 77.9877 20.9295L78.1389 20.9463L78.0045 20.9967Z" fill="#78A5F1"/>
<path d="M26.6558 21.0129C27.2101 20.5258 27.3781 20.0219 27.1765 19.4508C26.9749 18.9133 26.5718 18.6613 25.8495 18.5941C24.9593 18.527 24.0523 18.4262 23.162 18.3422C22.2046 18.2582 21.2304 18.1574 20.2562 18.0734C19.6347 18.023 19.198 17.8383 18.9124 17.116C18.4757 15.9906 17.9718 14.8652 17.5015 13.7734C17.2495 13.2023 16.9976 12.6145 16.7456 12.0434C16.4937 11.4723 16.1745 10.9348 15.4187 10.918H15.4019C14.646 10.918 14.3101 11.4723 14.0749 12.0098C13.8062 12.6648 13.5206 13.3031 13.2351 13.9414C12.7648 15.0164 12.2777 16.1418 11.8242 17.2336C11.6058 17.7711 11.3035 18.0063 10.7324 18.0398C9.72455 18.1238 8.69994 18.2246 7.70892 18.3254C6.81869 18.4094 5.89486 18.4934 4.98783 18.5773C4.21517 18.6445 3.81205 18.9133 3.61049 19.4844C3.42572 20.0555 3.59369 20.509 4.18158 21.0297C4.70228 21.4832 5.22299 21.9535 5.74369 22.407C6.63392 23.1965 7.54095 24.0027 8.46478 24.7754C8.95189 25.1785 9.06947 25.5816 8.9183 26.2031C8.78392 26.7574 8.59916 27.4293 8.39759 28.118C7.92728 29.8145 7.38978 31.7461 7.52416 32.3676C7.59134 32.6699 7.86009 33.1738 8.19603 33.325C8.58236 33.5098 9.23744 33.493 9.60697 33.2914C11.1523 32.4684 12.748 31.5277 14.3605 30.4863C14.7468 30.2344 15.0828 30.1168 15.4019 30.1168C15.721 30.1168 16.0234 30.2344 16.3593 30.4527C17.2831 31.0742 18.2742 31.6285 19.2148 32.1828C19.7355 32.4852 20.273 32.8043 20.8105 33.1234C21.4488 33.5098 22.0199 33.7785 22.6749 33.2914C23.2964 32.8211 23.2124 32.1996 23.0445 31.4438C22.9101 30.8391 22.7757 30.2344 22.6413 29.6297C22.3726 28.4539 22.1038 27.2445 21.8183 26.052C21.7007 25.5313 21.8015 25.1785 22.2214 24.8258C23.1285 24.0531 24.0355 23.2469 24.9089 22.4742C25.4968 22.0207 26.0847 21.5168 26.6558 21.0129ZM22.8093 20.9961C22.4566 21.2984 22.1374 21.6008 21.8183 21.8863C21.1128 22.5246 20.4578 23.1125 19.7691 23.6668C19.114 24.2043 18.9292 24.8258 19.1308 25.6824C19.3324 26.5223 19.5339 27.3789 19.7187 28.2859C19.8027 28.7059 19.9035 29.1258 20.0042 29.5793L20.0378 29.7137L19.9203 29.6465C19.5843 29.4449 19.2484 29.2602 18.9292 29.0922C18.2574 28.7227 17.6359 28.3699 17.0648 27.95C15.889 27.0934 14.9148 27.0766 13.8062 27.9164C13.2351 28.3531 12.5968 28.7059 11.9081 29.0754C11.589 29.2602 11.2531 29.4449 10.9003 29.6465L10.7828 29.7137L10.8163 29.5793C10.9003 29.1594 10.9843 28.7395 11.0683 28.3531C11.2531 27.4797 11.421 26.6566 11.6394 25.8504C11.9081 24.8594 11.6898 24.1875 10.9171 23.566C10.262 23.0453 9.62377 22.4742 8.96869 21.8695C8.66634 21.6008 8.3472 21.3152 8.02806 21.0129L7.92728 20.9121L8.07845 20.8953C8.51517 20.8449 8.93509 20.8113 9.33822 20.7609C10.2453 20.6602 11.1019 20.5762 11.9585 20.5258C12.916 20.4754 13.4703 20.0891 13.8062 19.2324C14.1253 18.4094 14.4781 17.6031 14.8644 16.7465C15.0324 16.377 15.2003 15.9906 15.3851 15.5875L15.4355 15.4531L15.4859 15.5875C15.6538 15.9906 15.8386 16.377 16.0066 16.7633C16.3929 17.6199 16.7456 18.4262 17.0648 19.2492C17.3839 20.1059 17.9382 20.4922 18.9124 20.5426C19.7523 20.593 20.6089 20.677 21.516 20.7777C21.9191 20.8281 22.3558 20.8617 22.7925 20.9121L22.9437 20.9289L22.8093 20.9961Z" fill="#78A5F1"/>
<path d="M17.2504 55.6133H17.2336C16.5113 55.6133 15.957 56.1844 15.957 56.9402C15.957 57.3098 16.0746 57.6457 16.3098 57.8977C16.5449 58.1496 16.8641 58.284 17.2168 58.3008C17.5863 58.3176 17.8887 58.1832 18.1238 57.9648C18.3758 57.7297 18.5102 57.377 18.5102 56.9906C18.4934 56.2012 17.9727 55.6301 17.2504 55.6133Z" fill="#78A5F1"/>
</svg>
