<svg width="86" height="86" viewBox="0 0 86 86" fill="none" xmlns="http://www.w3.org/2000/svg">
<g clip-path="url(#clip0_2205_6974)">
<path d="M24.8104 73.3191C25.0624 74.0413 25.3143 74.7132 25.5495 75.3851C25.8518 76.3089 25.5999 76.9136 24.7097 77.2495C20.88 78.6605 17.0335 80.0546 13.187 81.4319C12.2968 81.7511 11.7257 81.3984 11.3561 80.3905C9.72684 75.9226 8.09754 71.4714 6.46824 67.0034C4.45262 61.4941 2.43699 55.9679 0.438164 50.4585C-0.116133 48.93 0.08543 48.4597 1.59715 47.9222C5.05731 46.6624 8.53426 45.4027 11.9944 44.1429C13.6573 43.5382 14.01 43.7062 14.6315 45.3523C14.7155 45.5874 14.8331 45.8058 14.9507 46.0745C17.3526 44.7644 19.6538 43.4038 22.0557 42.228C28.405 39.1542 34.6534 39.4902 40.8514 42.8327C44.9499 45.0331 49.1995 46.9816 53.3987 49.014C53.6675 49.1484 54.121 49.0476 54.4401 48.93C59.2608 47.1999 64.0647 45.4195 68.8854 43.6894C73.0679 42.1945 77.1999 44.7644 77.6702 49.1819C77.7542 49.9378 77.5694 51.1808 77.4015 51.8023C78.3421 51.4663 79.9546 51.2144 81.08 51.4495C83.9186 52.0038 85.8839 54.3554 86.119 57.1941C86.3542 60.0999 84.7753 62.737 82.0374 63.7616C76.3768 65.878 70.6827 67.9273 65.0054 69.9933C61.5956 71.2362 58.1522 72.3952 54.7761 73.7222C51.4503 75.0323 48.1413 74.814 44.7483 74.1253C40.062 73.1679 35.3589 72.328 30.6557 71.4546C30.4374 71.421 30.1854 71.3874 29.9839 71.4546C28.2706 72.0425 26.5741 72.6808 24.8104 73.3191ZM23.9034 70.8667C25.7175 70.1948 27.4475 69.5566 29.1776 68.9687C29.6479 68.8175 30.2022 68.7335 30.6893 68.8175C35.3925 69.6741 40.1124 70.4972 44.7819 71.4882C48.1245 72.1937 51.3327 72.3448 54.6081 71.0347C59.2608 69.187 64.0143 67.5745 68.7175 65.8444C72.7487 64.3831 76.78 62.9386 80.8112 61.4437C83.7339 60.3519 84.4897 56.8077 82.2222 54.8257C81.0128 53.7507 79.6018 53.5995 78.0901 54.1538C70.8003 56.8245 63.5272 59.4784 56.2374 62.1491C54.2218 62.8882 52.2733 62.8882 50.2913 61.9476C45.4034 59.6296 40.4819 57.362 35.5772 55.0777C34.3511 54.5066 33.9647 53.9019 34.3175 53.0788C34.6702 52.2558 35.4429 52.1382 36.7026 52.7261C41.6577 55.0441 46.6128 57.362 51.5847 59.6632C53.7011 60.6374 56.019 59.8312 56.9261 57.8323C57.8331 55.8335 56.9932 53.6331 54.9104 52.6253C53.8018 52.0878 52.6597 51.6007 51.5511 51.0464C47.3182 48.9468 43.0854 46.864 38.8862 44.7308C35.2077 42.8495 31.378 42.2616 27.3132 43.0847C23.0132 43.9581 19.6538 46.7128 15.7569 48.5269C18.4948 56.0183 21.1823 63.3921 23.9034 70.8667ZM22.7276 75.2171C19.2675 65.7101 15.8241 56.2534 12.3639 46.7632C9.22293 47.9054 6.1827 49.014 3.07527 50.1394C6.53543 59.6296 9.97879 69.0527 13.4557 78.5933C16.5632 77.4511 19.6034 76.3425 22.7276 75.2171ZM59.6975 58.0507C64.1991 56.4046 68.5999 54.8089 72.9671 53.1628C73.4038 52.9948 73.8069 52.6421 74.1261 52.2894C75.3186 50.9792 75.453 49.0476 74.462 47.5695C73.4878 46.1081 71.6905 45.453 69.9772 46.0409C67.3401 46.948 64.7198 47.9222 62.0995 48.8796C60.4366 49.4843 58.7737 50.1058 57.01 50.7441C59.4624 52.6757 60.319 55.0609 59.6975 58.0507Z" fill="#78A5F1"/>
<path d="M22.121 19.9713C23.532 19.9713 24.9429 20.0217 26.3539 19.9377C26.841 19.9041 27.4121 19.7026 27.7816 19.3834C32.4007 15.3522 37.4902 12.1608 43.4531 10.5315C51.8011 8.26391 59.1917 10.0612 65.5914 15.8897C69.1187 19.0979 71.739 22.978 73.7378 27.278C73.7882 27.3788 73.8722 27.6307 73.8722 27.7315C73.9394 28.1178 73.889 28.7225 73.6203 29.0248C73.3515 29.3272 72.646 29.5456 72.2429 29.3776C68.1445 27.9498 64.1804 28.5209 60.25 30.0495C57.3273 31.1748 54.3542 32.1827 51.2132 32.6362C41.5886 34.0471 33.8285 30.7381 27.6808 23.3979C27.1601 22.7764 26.673 22.5413 25.8667 22.5581C23.1289 22.6084 20.391 22.5748 17.6363 22.5748C16.5949 22.5748 16.0406 22.1381 16.0238 21.3151C16.007 20.4752 16.6117 19.9881 17.6867 19.9881C19.1816 19.9545 20.6597 19.9713 22.121 19.9713ZM70.3281 26.2534C68.4972 22.9444 66.4144 20.1393 63.7773 17.7541C58.839 13.2694 53.1113 11.3713 46.4765 12.5303C40.7992 13.5381 35.9113 16.2088 31.4601 19.7698C31.4433 19.7866 31.4601 19.8706 31.4601 19.9713C31.7792 19.9713 32.0816 19.9713 32.4007 19.9713C38.7164 19.9713 45.032 19.9713 51.3644 19.9713C51.7003 19.9713 52.0699 19.9713 52.389 20.0721C53.0105 20.2737 53.3128 20.7608 53.2457 21.4159C53.1785 22.0709 52.7921 22.4573 52.1371 22.5581C51.8851 22.5916 51.6164 22.5748 51.3644 22.5748C44.7632 22.5748 38.1453 22.5748 31.5441 22.5748C31.2417 22.5748 30.9394 22.5748 30.4691 22.5748C30.7042 22.8772 30.8218 23.062 30.9898 23.2131C32.4679 24.4561 33.8453 25.8334 35.441 26.9084C41.4039 30.9061 47.8874 31.1413 54.6062 29.2768C56.0507 28.8737 57.4617 28.3698 58.8558 27.8491C62.4839 26.4381 66.1792 25.4303 70.3281 26.2534Z" fill="#78A5F1"/>
</g>
<defs>
<clipPath id="clip0_2205_6974">
<rect width="86" height="86" fill="white"/>
</clipPath>
</defs>
</svg>
