<svg width="86" height="86" viewBox="0 0 86 86" fill="none" xmlns="http://www.w3.org/2000/svg">
<path d="M21.8683 51.6155C21.7676 46.0893 21.9523 41.5037 22.8762 36.9518C24.4215 29.3596 28.6879 24.0182 35.7426 20.8268C42.8476 17.6186 50.1711 16.6444 57.7801 18.7608C58.8887 19.0631 59.9637 19.4998 61.0051 19.9869C66.6992 22.6408 68.8324 28.6373 66.1617 34.3315C64.5828 37.7076 61.9625 40.1264 59.0398 42.2932C57.2762 43.5866 55.4453 44.7959 53.7152 46.1229C52.7746 46.8284 51.9012 47.6346 51.0781 48.4912C48.3738 51.3299 47.5508 54.6389 48.8609 58.351C49.4656 60.0811 50.2719 61.744 51.0613 63.4069C52.2875 65.9096 53.5976 68.3787 54.1687 71.1502C55.6637 78.2217 51.1117 84.9405 44.1914 85.8307C37.0191 86.7545 29.5445 82.8073 26.1683 76.2901C24.2199 72.5276 23.3129 68.4627 22.7754 64.3139C22.4898 62.0631 22.2883 59.7955 22.1371 57.528C21.9859 55.2604 21.9355 52.976 21.8683 51.6155ZM24.4551 50.7084C24.4551 50.7924 24.4719 51.078 24.4719 51.1451C24.5223 52.6401 24.6062 54.6725 24.707 56.6545C24.9422 61.4248 25.3789 66.1951 26.773 70.7975C28.7719 77.4155 32.2992 82.5721 41.8902 83.2776C47.4164 83.6807 51.75 79.5655 51.834 74.0225C51.8676 71.4022 50.9437 69.0674 49.8351 66.7662C48.7937 64.5826 47.6515 62.4494 46.7445 60.2155C44.5441 54.7901 45.6359 50.003 49.8855 45.9717C50.7758 45.1151 51.75 44.3256 52.741 43.6034C54.5719 42.2428 56.4699 40.983 58.2672 39.6057C60.5515 37.8588 62.584 35.8768 63.8101 33.2061C65.8594 28.7213 64.2637 24.3205 59.7789 22.2713C59.023 21.9186 58.2504 21.5994 57.4441 21.3811C50.0871 19.2311 43.0492 20.2557 36.2129 23.4807C30.0652 26.3866 26.5883 31.2744 25.3285 37.8924C24.5223 42.142 24.3375 49.1631 24.4551 50.7084Z" fill="#78A5F1"/>
<path d="M67.4401 16.7793C62.8882 16.6954 59.2768 13 59.3608 8.48168C59.4448 3.89614 63.1737 0.268013 67.7257 0.385591C72.2776 0.50317 75.8553 4.21528 75.7546 8.71684C75.637 13.2856 71.9417 16.8633 67.4401 16.7793ZM67.5241 14.1758C70.6315 14.1926 73.1175 11.7235 73.151 8.61606C73.1846 5.52543 70.7155 3.0059 67.6081 2.97231C64.4839 2.93872 61.9307 5.44145 61.9307 8.56567C61.9475 11.6731 64.4335 14.1758 67.5241 14.1758Z" fill="#78A5F1"/>
<path d="M48.0227 0.0332031C51.6172 0.0332031 54.4895 2.92227 54.4895 6.5168C54.4895 10.1113 51.6004 12.9836 48.0059 12.9668C44.4113 12.9668 41.5391 10.0777 41.5391 6.4832C41.5559 2.90547 44.4449 0.0332031 48.0227 0.0332031ZM48.0395 10.3801C50.2063 10.3633 51.9195 8.61641 51.8859 6.46641C51.8523 4.29961 50.1055 2.60313 47.9387 2.63672C45.8055 2.67031 44.1258 4.38359 44.1258 6.5168C44.1426 8.6668 45.8727 10.3969 48.0395 10.3801Z" fill="#78A5F1"/>
<path d="M37.0195 10.834C37.0195 14.4117 34.1305 17.3008 30.5527 17.3008C26.975 17.3008 24.0859 14.4117 24.0859 10.834C24.0859 7.25625 26.975 4.36719 30.5527 4.36719C34.1473 4.36719 37.0195 7.23945 37.0195 10.834ZM30.5527 14.6973C32.7195 14.6973 34.4496 12.9504 34.416 10.8004C34.3992 8.63359 32.6523 6.92031 30.4855 6.95391C28.3523 6.9875 26.6727 8.68398 26.6559 10.8172C26.6727 12.9672 28.4027 14.7141 30.5527 14.6973Z" fill="#78A5F1"/>
<path d="M16.7129 28.5372C13.1184 28.5204 10.2461 25.6313 10.2461 22.0536C10.2629 18.4591 13.152 15.5868 16.7297 15.6036C20.3242 15.6204 23.1965 18.4927 23.1797 22.0872C23.1797 25.6649 20.2906 28.5372 16.7129 28.5372ZM16.7633 18.1903C14.5965 18.1735 12.8664 19.8868 12.8496 22.0536C12.8496 24.1868 14.5125 25.9001 16.6457 25.9337C18.8125 25.9841 20.5594 24.2876 20.593 22.1208C20.6266 19.954 18.9301 18.2071 16.7633 18.1903Z" fill="#78A5F1"/>
</svg>
