<svg width="86" height="86" viewBox="0 0 86 86" fill="none" xmlns="http://www.w3.org/2000/svg">
<g clip-path="url(#clip0_2205_6862)">
<path d="M85.8473 65.3894C85.4106 63.3737 84.2348 61.7444 82.5215 60.787C80.8082 59.8296 78.7926 59.6616 76.8442 60.3335C74.627 61.1062 72.393 61.9124 70.2094 62.7019C69.1848 63.0714 68.1602 63.4409 67.1356 63.8104C65.2879 64.4655 63.4403 65.1374 61.5758 65.8093L59.2747 66.6323C59.2579 66.5819 59.2579 66.5315 59.2579 66.5147C59.8121 64.4319 59.3586 62.2819 58.0149 60.6022C56.6543 58.9058 54.6051 57.9819 52.3543 58.0659C50.977 58.1163 49.5829 58.0995 48.2223 58.0827C46.9289 58.0659 45.602 58.0491 44.2918 58.0995C41.302 58.2003 38.6985 57.3269 36.1118 55.3952C29.9305 50.7593 23.1446 49.8019 15.9555 52.5733C15.1325 52.8925 14.343 53.2452 13.5032 53.6315C13.1672 53.7827 12.8313 53.9339 12.4786 54.1019C12.4786 53.9171 12.4786 53.7323 12.4786 53.5476C12.4786 53.0269 12.4954 52.5397 12.4618 52.0526C12.361 50.373 11.1852 49.214 9.5559 49.1804C7.27153 49.13 5.03754 49.13 2.87075 49.1804C1.20786 49.214 0.0320747 50.4401 0.0152778 52.2206C-0.0015191 52.9093 0.0152778 53.598 0.0152778 54.2866C0.0152778 54.589 0.0152778 54.8745 0.0152778 55.1769V61.4253C0.0152778 67.6737 0.0152778 73.9054 0.0152778 80.1538C0.0152778 82.2366 1.17426 83.3788 3.25707 83.3956C5.57504 83.4124 7.50668 83.4124 9.50551 83.3956C11.2188 83.3788 12.3946 82.2534 12.5122 80.5401C12.5289 80.2378 12.5289 79.9355 12.5289 79.5659C12.5289 79.4148 12.5289 79.2636 12.5289 79.1124C13.0497 79.1628 13.5704 79.2132 14.0911 79.2636C15.3004 79.3812 16.4258 79.4987 17.568 79.6667C21.3305 80.221 24.9586 81.5144 28.4524 82.7741L29.309 83.0765C33.8778 84.7058 38.5305 85.5288 43.2 85.5288C45.0477 85.5288 46.8954 85.3944 48.7262 85.1425C54.6219 84.3194 60.1985 82.5558 64.8848 80.9265C71.0157 78.7933 76.9282 76.0386 82.4543 72.7296C85.125 71.1003 86.452 68.228 85.8473 65.3894ZM12.4786 57.9315C12.4786 57.3269 12.6465 57.0245 13.1504 56.739C18.5254 53.6483 23.5981 52.8757 28.6707 54.3874C30.9215 55.0593 32.9371 56.1007 34.6672 57.4948C37.4723 59.7456 40.5629 60.787 44.1407 60.6694C46.845 60.5855 49.5997 60.619 52.2536 60.6526H52.7071C54.1012 60.6694 55.361 61.2909 56.1336 62.3659C56.8895 63.3905 57.1079 64.7007 56.7215 65.9437C56.2008 67.6905 54.4707 68.8663 52.4383 68.8663C49.4821 68.8831 46.4922 68.8831 43.5864 68.8663C42.209 68.8663 40.8149 68.8663 39.4375 68.8663C39.3704 68.8663 39.2864 68.8663 39.2192 68.8663C39.0008 68.8663 38.7657 68.8495 38.5473 68.8999C38.1442 68.9839 37.8082 69.1687 37.6403 69.4374C37.5059 69.6558 37.4555 69.9077 37.5059 70.1765C37.6067 70.6468 38.0434 71.0835 38.3961 71.369C38.5809 71.5202 38.8832 71.5034 39.1688 71.4866C39.2528 71.4866 39.32 71.4866 39.3871 71.4866C40.5965 71.4866 41.7891 71.4866 42.9985 71.4866C45.4172 71.4866 47.9368 71.4698 50.3891 71.5034C52.7071 71.537 54.6555 71.2011 56.52 70.4452C59.1571 69.387 61.8782 68.4296 64.5153 67.5058C65.6239 67.1194 66.7661 66.7163 67.8914 66.3132C68.9161 65.9437 69.9239 65.5741 70.9317 65.2214C73.1657 64.4151 75.4668 63.5753 77.7344 62.8026C79.011 62.3659 80.3547 62.5003 81.4297 63.189C82.4711 63.8608 83.1598 64.9862 83.2942 66.2796C83.4789 68.0433 82.7399 69.4206 81.1106 70.4116C74.711 74.2917 67.925 77.3151 60.9543 79.4147C56.3856 80.7921 52.5727 81.7327 48.9782 82.3878C42.7129 83.53 36.1789 82.8413 29.5442 80.389C25.8993 79.0452 21.6497 77.5503 17.2153 76.9456C16.1403 76.7944 15.0821 76.7105 13.9399 76.6097C13.4528 76.5593 12.9489 76.5257 12.445 76.4753V71.7218C12.4954 67.2034 12.4954 62.5339 12.4786 57.9315ZM9.90864 62.8866C9.90864 64.0288 9.90864 65.171 9.90864 66.3132V69.9749C9.90864 73.2335 9.90864 76.4921 9.90864 79.7507C9.90864 80.7417 9.90864 80.7417 8.90082 80.7417C8.26254 80.7417 7.60746 80.7417 6.96918 80.7417C5.7934 80.7417 4.56723 80.7417 3.35786 80.7585C3.05551 80.7585 2.85395 80.7081 2.75317 80.5905C2.63559 80.4729 2.5852 80.2714 2.5852 79.9522C2.602 70.2437 2.602 61.2741 2.5852 52.5733C2.5852 52.2542 2.63559 52.0358 2.76997 51.9183C2.88754 51.8007 3.08911 51.7503 3.39145 51.7503C3.40825 51.7503 3.42504 51.7503 3.44184 51.7503C5.45746 51.7839 7.30512 51.7839 9.08559 51.7503C9.43832 51.7503 9.65668 51.8007 9.77426 51.9183C9.90864 52.0358 9.95903 52.2542 9.95903 52.6237C9.90864 56.0503 9.90864 59.5272 9.90864 62.8866Z" fill="#78A5F1"/>
<path d="M27.7121 32.3676C27.9809 32.6363 28.2496 32.8883 28.5184 33.157C29.2406 33.8793 29.543 34.7527 29.3918 35.727L29.3246 36.2141C29.1903 37.1211 29.0559 38.0617 28.8879 38.9688C28.2664 42.5969 29.6606 44.5789 33.2719 45.2004C34.2797 45.3684 35.3043 45.5531 36.3457 45.6875C37.5887 45.8555 38.4453 46.477 38.9996 47.6024L39.0836 47.7871C39.5707 48.8117 40.0746 49.8531 40.6625 50.8442C41.7207 52.6582 42.9469 53.5484 44.4922 53.5484C45.2817 53.5484 46.1383 53.3301 47.0957 52.8766C48.1371 52.3895 49.1617 51.852 50.1696 51.3145L50.2031 51.2977C51.3621 50.6762 52.4875 50.6762 53.6465 51.2809C53.9321 51.432 54.2176 51.5664 54.5031 51.7176C55.2254 52.1039 55.9813 52.4902 56.7539 52.843C59.6766 54.2035 61.709 53.5484 63.3047 50.7266C63.8758 49.7188 64.3797 48.6774 64.8332 47.7031C65.4043 46.4938 66.3281 45.8219 67.6719 45.6371C68.8645 45.4859 70.2586 45.2676 71.6024 44.9484C74.1051 44.327 75.2473 42.7816 75.0961 40.2285C75.0121 38.9688 74.7938 37.709 74.5922 36.6172C74.2731 34.9375 74.6762 33.6777 75.8184 32.6699C76.7758 31.8133 77.666 30.9231 78.4219 29.9824C80.0512 28.0004 80.0512 26.0016 78.4219 24.0027C77.666 23.0957 76.8598 22.2559 75.9864 21.5168C74.6594 20.3746 74.2227 18.9973 74.609 17.2168C74.7938 16.3434 74.9114 15.4867 75.0121 14.7981C75.0457 14.5461 75.0793 14.3277 75.0961 14.143V14.1262C75.1633 11.2539 74.1051 9.6918 71.6864 9.07032C70.561 8.78477 69.3852 8.6168 68.243 8.44883C68.0246 8.41524 67.8063 8.38164 67.5879 8.34805C66.3114 8.16329 65.4547 7.5418 64.9172 6.45C64.3461 5.27422 63.8422 4.23282 63.2543 3.20821C61.6418 0.470316 59.6262 -0.167965 56.7203 1.17578C55.9813 1.51172 55.259 1.89805 54.5535 2.25078C54.2008 2.43555 53.8313 2.62032 53.4785 2.80508C52.4371 3.32579 51.3957 3.32579 50.3543 2.78829C50.0352 2.63711 49.7328 2.46914 49.4137 2.30118C48.641 1.89805 47.8348 1.47813 47.0117 1.1086C44.2067 -0.151168 42.191 0.487113 40.6457 3.15782C40.041 4.21602 39.5035 5.32461 38.9828 6.39961C38.4453 7.525 37.5551 8.16329 36.2617 8.34805L36.077 8.36485C34.918 8.53282 33.7254 8.68399 32.5832 8.95274C29.7278 9.62461 28.5856 11.1531 28.8039 14.059C28.8879 15.1508 29.0895 16.2426 29.2742 17.3008L29.291 17.4016C29.5934 19.0813 29.2239 20.3074 28.0985 21.2816C27.3594 21.9199 26.6203 22.659 25.8309 23.566C23.6641 26.0016 23.6977 28.0676 25.8981 30.4695C26.4692 31.1582 27.0906 31.7797 27.7121 32.3676ZM33.0367 11.5563C33.9102 11.3715 34.8004 11.2203 35.6739 11.0859C36.1274 11.0188 36.5809 10.9348 37.0344 10.8676C38.8821 10.5484 40.2594 9.55743 41.116 7.92813C41.3512 7.47461 41.5863 7.0211 41.8047 6.56758C42.1406 5.89571 42.4934 5.20704 42.8629 4.55196C43.434 3.54414 43.8875 3.09063 44.5426 3.09063C44.9289 3.09063 45.3992 3.2418 46.0207 3.52735C46.6926 3.84649 47.3813 4.18243 48.0364 4.51836C48.4731 4.73672 48.9098 4.97188 49.3633 5.19024C51.0766 6.03008 52.8403 6.03008 54.5535 5.19024C55.0071 4.97188 55.4606 4.73672 55.8973 4.50157C56.5692 4.16563 57.2578 3.7961 57.9465 3.47696C59.475 2.77149 60.0797 2.97305 60.9363 4.41758C61.3059 5.02227 61.6754 5.66055 61.9106 6.31563C63.0528 9.38946 65.2867 10.9852 68.7469 11.2035C69.5531 11.2539 70.3426 11.4219 70.9473 11.5731C72.2071 11.8922 72.5262 12.3793 72.5094 13.975C72.459 14.3109 72.4086 14.6637 72.3582 15.0332C72.2239 15.9234 72.0727 16.9481 71.9215 17.9559C71.6696 19.7027 72.1399 21.2145 73.3157 22.4574C73.7188 22.8941 74.1555 23.3141 74.5754 23.734C75.0625 24.2211 75.5664 24.725 76.0367 25.2289C77.3637 26.6734 77.3637 27.3957 76.0199 28.857C75.4153 29.5121 74.7938 30.1168 74.1723 30.6711C72.1735 32.418 71.468 34.5848 72.0391 37.2723C72.2742 38.3641 72.4254 39.5063 72.4926 40.682C72.5598 41.6898 72.2239 42.1266 71.2496 42.3785C70.1578 42.6641 68.9653 42.8824 67.6887 43.0336C65.1356 43.3359 63.4223 44.5621 62.3977 46.7625C61.8938 47.8543 61.4235 48.7781 60.9531 49.6012C60.0965 51.0961 59.475 51.2977 57.9129 50.5754C57.1403 50.2227 56.2332 49.7859 55.3766 49.2988C53.0418 47.9551 50.7574 47.9719 48.3555 49.3492C47.3981 49.9035 46.4406 50.3738 45.5 50.7602C44.3746 51.2305 43.8203 51.0457 43.1485 50.0211C42.7453 49.3996 42.275 48.6438 41.9727 47.8375C40.7969 44.6797 38.5125 43.0672 34.9852 42.8824C34.2965 42.8488 33.5742 42.6809 32.9696 42.5297C31.5922 42.1938 31.1891 41.6227 31.3403 40.2285C31.4578 39.0695 31.6594 37.9609 31.8946 36.6508C32.2641 34.5344 31.7098 32.7035 30.1981 31.2422C29.9965 31.0406 29.7949 30.8559 29.5934 30.6543C29.0391 30.1168 28.468 29.5625 27.9305 28.9914C26.4524 27.4293 26.4524 26.707 27.9473 25.1113C28.4512 24.5738 28.9383 24.0699 29.4926 23.6164C31.7098 21.752 32.4489 19.4172 31.7434 16.4945C31.5754 15.7723 31.441 14.9828 31.3403 13.9414C31.2227 12.4465 31.6258 11.8754 33.0367 11.5563Z" fill="#78A5F1"/>
<path d="M51.9192 43.6211C51.936 43.6211 51.9696 43.6211 51.9864 43.6211C61.1239 43.5875 68.5313 36.1129 68.4977 26.9922C68.481 22.541 66.7341 18.3754 63.5931 15.268C60.4688 12.1438 56.32 10.4473 51.9024 10.4473C51.8856 10.4473 51.852 10.4473 51.8353 10.4473C47.4345 10.4641 43.2856 12.2109 40.1782 15.3688C37.0708 18.5266 35.3575 22.6922 35.3911 27.1098C35.4247 36.2305 42.8321 43.6211 51.9192 43.6211ZM37.961 27.009C37.961 23.2801 39.4224 19.7863 42.0763 17.1492C44.7134 14.5121 48.2239 13.0676 51.9528 13.0676C51.9696 13.0676 51.9864 13.0676 51.9864 13.0676C59.6626 13.0844 65.911 19.3328 65.9278 26.9922C65.9278 30.7211 64.4833 34.2316 61.8462 36.8687C59.2091 39.5227 55.6985 40.9672 51.9528 40.9672C48.2071 40.9672 44.6966 39.5059 42.0427 36.852C39.3888 34.2316 37.9442 30.7211 37.961 27.009Z" fill="#78A5F1"/>
<path d="M46.2566 34.3341C47.1301 35.1907 48.1547 35.6107 49.1793 35.6107C50.2039 35.6107 51.2117 35.1907 52.0852 34.3509C52.8914 33.5614 53.6977 32.7552 54.4871 31.9657C54.823 31.613 55.1758 31.2771 55.5117 30.9243C56.066 30.37 56.6035 29.8325 57.1578 29.2782C58.468 27.9681 59.8285 26.6243 61.1387 25.2806C62.2809 24.1048 62.6 22.6771 62.0793 21.1653C61.5586 19.6536 60.4164 18.7298 58.7871 18.5282C57.5273 18.3603 56.3852 18.7802 55.3941 19.7712C53.9328 21.2493 52.4715 22.7107 50.9598 24.2392L49.1289 26.07C49.0617 25.986 48.9945 25.9021 48.9441 25.8349C48.7762 25.6165 48.625 25.4317 48.457 25.2638C46.7605 23.6345 44.3586 23.5841 42.7629 25.163C41.1504 26.7587 41.184 29.2278 42.8301 30.9243C43.8379 31.9489 44.9633 33.0743 46.2566 34.3341ZM48.0707 32.436C46.9621 31.361 45.8367 30.2357 44.7113 29.0767C44.0395 28.388 43.9891 27.6321 44.577 27.0274C44.8457 26.7587 45.1648 26.6075 45.5176 26.6075C45.9039 26.6075 46.3238 26.7923 46.7102 27.145C46.9453 27.3634 47.1805 27.5985 47.3988 27.8337C47.4996 27.9345 47.5836 28.0185 47.6844 28.1192C49.0113 29.4462 49.3977 29.4462 50.7414 28.0857C51.2789 27.5482 51.8164 27.0107 52.3371 26.4732C53.8992 24.911 55.5117 23.2985 57.1074 21.7364C57.4434 21.4005 57.9473 21.1485 58.3672 21.0982C58.6695 21.0646 58.9551 21.1485 59.1902 21.3501C59.5094 21.6357 59.6941 22.106 59.7109 22.6603C59.6941 22.7107 59.6605 22.761 59.627 22.8282C59.5262 23.0466 59.3918 23.3321 59.1902 23.5337C56.5531 26.2044 53.748 29.0263 50.3215 32.4192C49.5656 33.1751 48.8266 33.1751 48.0707 32.436Z" fill="#78A5F1"/>
</g>
<defs>
<clipPath id="clip0_2205_6862">
<rect width="86" height="86" fill="white"/>
</clipPath>
</defs>
</svg>
