<svg width="75" height="75" viewBox="0 0 75 75" fill="none" xmlns="http://www.w3.org/2000/svg">
<rect width="75" height="75" rx="37.5" fill="white"/>
<path d="M17.5518 21.0046C17.3779 20.9866 17.2025 21.0218 17.0508 21.1053C16.9706 21.1509 16.899 21.209 16.839 21.2774C16.8369 21.2804 16.8348 21.2834 16.8327 21.2864C16.7774 21.3496 16.7326 21.4208 16.7001 21.4972C16.698 21.5002 16.6959 21.5032 16.6939 21.5062C16.6939 21.5062 10.4575 36.2204 16.9622 47.0208C22.6799 56.5144 36.0411 59.3423 39.1931 59.8881C39.1973 59.8912 39.2014 59.8942 39.2056 59.8971C39.2163 59.9013 39.227 59.9053 39.2379 59.9091C39.242 59.9112 39.2462 59.9132 39.2504 59.9151C39.3038 59.9416 39.3602 59.9624 39.4183 59.9772C39.4178 59.9772 39.4189 59.9772 39.4183 59.9772C39.4386 59.9819 39.4607 59.9859 39.4813 59.9892C39.5448 59.9993 39.6094 60.0024 39.6736 59.9982C39.6948 59.9969 39.7158 59.9949 39.7368 59.9922C39.7363 59.9922 39.7373 59.9922 39.7368 59.9922C39.7368 59.9922 39.7572 59.9908 39.79 59.9862C39.8182 59.9892 39.8789 59.9982 39.8789 59.9982C39.8862 59.9983 39.8935 59.9983 39.9008 59.9982C39.9331 59.999 39.9655 59.998 39.9977 59.9952C40.0545 59.9978 40.1114 59.9948 40.1676 59.9862C40.2527 59.9691 40.3345 59.9392 40.41 59.8977C40.4254 59.8892 40.4405 59.8802 40.4553 59.8708C43.347 59.3468 54.569 56.9156 59.4455 48.796C65.0541 39.4575 59.6782 26.7953 59.6782 26.7953C59.6741 26.7883 59.67 26.7813 59.6657 26.7743C59.6652 26.7723 59.6646 26.7703 59.6641 26.7683C59.6397 26.7152 59.6094 26.6649 59.5737 26.6181C59.5686 26.6111 59.5634 26.6041 59.558 26.5971C59.52 26.5508 59.4767 26.5087 59.4289 26.4715C59.4196 26.4643 59.4102 26.4573 59.4007 26.4505C59.3986 26.4495 59.3965 26.4485 59.3944 26.4475C59.371 26.4313 59.3467 26.4163 59.3216 26.4026C59.3073 26.3962 59.2928 26.3902 59.2781 26.3846C59.2427 26.3671 59.206 26.352 59.1683 26.3396C59.1339 26.3284 59.0988 26.3194 59.0632 26.3126C59.0296 26.3056 58.9955 26.3006 58.9613 26.2976C58.9203 26.2957 58.8792 26.2967 58.8383 26.3006C58.8205 26.3001 58.8027 26.3001 58.7848 26.3006C58.7848 26.3006 47.4073 27.8116 41.015 34.9041C40.8527 34.5964 40.6813 34.2905 40.4994 33.9885C33.9982 23.1938 17.6039 21.015 17.5864 21.0127C17.5843 21.0127 17.5806 21.0127 17.5785 21.0127C17.5682 21.0095 17.5577 21.0065 17.5473 21.0037L17.5518 21.0046ZM19.1309 22.9754C22.7723 23.7004 34.1072 26.5436 39.0667 34.7783C39.4315 35.3841 39.7532 36.0044 40.0348 36.6344C40.0379 36.6414 40.041 36.6484 40.0442 36.6554C43.5763 44.5836 40.8438 54.0954 39.7646 57.2307L19.1309 22.9754ZM17.6989 23.7686L38.3312 58.0247C34.6896 57.2996 23.3532 54.4562 18.3939 46.2218C13.4346 37.9873 16.5334 27.1544 17.6989 23.7686ZM57.2503 28.2633L42.8198 52.289C43.6643 47.7973 43.9945 41.8773 41.774 36.5151C46.3444 30.9423 54.2872 28.8718 57.2503 28.2633ZM58.6727 29.0674C59.7003 32.1324 62.1449 41.1196 58.0116 48.0019C54.1107 54.4972 45.1406 57.1981 41.2988 58.0711C41.3145 58.0229 41.3335 57.9665 41.3504 57.9161L58.6727 29.0674Z" fill="#1F2838"/>
</svg>
