<svg width="75" height="75" viewBox="0 0 75 75" fill="none" xmlns="http://www.w3.org/2000/svg">
<rect width="75" height="75" rx="37.5" fill="white"/>
<path d="M16.6998 18.0048C16.5186 17.9859 16.3359 18.023 16.1779 18.1107C16.0943 18.1586 16.0198 18.2198 15.9573 18.2917C15.9551 18.2948 15.9529 18.298 15.9508 18.3011C15.8931 18.3676 15.8465 18.4423 15.8126 18.5227C15.8104 18.5258 15.8083 18.529 15.8061 18.5322C15.8061 18.5322 9.30993 34.0009 16.0857 45.3552C22.0415 55.3356 35.9595 58.3085 39.2428 58.8824C39.2472 58.8856 39.2515 58.8887 39.2559 58.8919C39.267 58.8963 39.2782 58.9005 39.2894 58.9045C39.2938 58.9066 39.2981 58.9087 39.3025 58.9108C39.3582 58.9386 39.4168 58.9605 39.4774 58.976C39.4769 58.976 39.478 58.976 39.4774 58.976C39.4985 58.981 39.5215 58.9852 39.543 58.9886C39.6092 58.9993 39.6764 59.0025 39.7434 58.9981C39.7654 58.9968 39.7873 58.9947 39.8092 58.9918C39.8086 58.9918 39.8097 58.9918 39.8092 58.9918C39.8092 58.9918 39.8304 58.9903 39.8646 58.9855C39.8939 58.9886 39.9572 58.9981 39.9572 58.9981C39.9648 58.9982 39.9724 58.9982 39.98 58.9981C40.0137 58.9989 40.0474 58.9979 40.081 58.9949C40.1401 58.9977 40.1994 58.9945 40.2579 58.9855C40.3466 58.9675 40.4318 58.9361 40.5104 58.8925C40.5264 58.8835 40.5422 58.8741 40.5576 58.8641C43.5698 58.3133 55.2594 55.7574 60.3391 47.2214C66.1813 37.404 60.5815 24.0925 60.5815 24.0925C60.5772 24.0851 60.5729 24.0777 60.5684 24.0705C60.5679 24.0683 60.5673 24.0662 60.5667 24.0641C60.5414 24.0083 60.5098 23.9554 60.4726 23.9062C60.4673 23.8988 60.4618 23.8914 60.4563 23.8842C60.4166 23.8354 60.3715 23.7912 60.3217 23.7521C60.3121 23.7445 60.3023 23.7372 60.2924 23.73C60.2902 23.729 60.2881 23.7279 60.2859 23.7269C60.2615 23.7099 60.2361 23.6941 60.21 23.6796C60.1951 23.6729 60.18 23.6666 60.1647 23.6607C60.1278 23.6423 60.0896 23.6265 60.0503 23.6134C60.0145 23.6017 59.9779 23.5922 59.9409 23.5851C59.9058 23.5777 59.8703 23.5724 59.8346 23.5693C59.7919 23.5673 59.7491 23.5683 59.7066 23.5724C59.688 23.5719 59.6694 23.5719 59.6509 23.5724C59.6509 23.5724 47.7993 25.1609 41.1406 32.6172C40.9715 32.2937 40.793 31.972 40.6035 31.6546C33.8314 20.3063 16.754 18.0158 16.7358 18.0133C16.7337 18.0133 16.7298 18.0133 16.7276 18.0133C16.7168 18.01 16.706 18.0068 16.6951 18.0039L16.6998 18.0048ZM18.3447 20.0767C22.1378 20.8389 33.945 23.8279 39.1111 32.4849C39.4912 33.1218 39.8263 33.7738 40.1196 34.4362C40.1228 34.4436 40.126 34.4509 40.1294 34.4582C43.8086 42.7931 40.9623 52.7926 39.8381 56.0887L18.3447 20.0767ZM16.853 20.9106L38.345 56.9234C34.5517 56.1611 22.743 53.1719 17.577 44.5152C12.411 35.8585 15.6389 24.47 16.853 20.9106ZM58.0524 25.6358L43.0206 50.8936C43.9003 46.1715 44.2443 39.948 41.9313 34.3107C46.6921 28.4522 54.9658 26.2755 58.0524 25.6358ZM59.534 26.4811C60.6044 29.7033 63.1509 39.1513 58.8454 46.3867C54.7819 53.215 45.4382 56.0544 41.4363 56.9722C41.4526 56.9215 41.4724 56.8622 41.49 56.8093L59.534 26.4811Z" fill="#1F2838"/>
<rect width="75" height="75" rx="37.5" fill="white"/>
<path d="M59.6473 44.259C58.7225 43.9183 57.7253 43.9686 56.84 44.4032L48.4506 48.5288C48.4701 48.3609 48.5012 48.1965 48.5012 48.0233C48.5012 45.6132 46.5625 43.6526 44.1796 43.6526H36.9629L35.4691 42.4021C32.8147 40.1805 29.4552 38.9567 26.0091 38.9567H21.6581C21.5741 37.8653 20.6787 37 19.5781 37H14.0963C12.9405 37 12 37.9512 12 39.1197V55.4256C12 56.5952 12.9405 57.5464 14.0963 57.5464H19.5781C20.5429 57.5464 21.3493 56.88 21.5923 55.9808H22.6618L32.8167 59.2957C34.5595 59.7668 36.3349 60 38.1022 60C41.4202 60 44.7095 59.1782 47.6979 57.5661L60.101 50.875C61.7505 49.9851 62.4517 47.9335 61.6973 46.2049C61.2998 45.2932 60.5722 44.6027 59.6473 44.259ZM19.6743 55.4256C19.6743 55.48 19.6313 55.5235 19.5781 55.5235H14.0963C14.0431 55.5235 14.0001 55.48 14.0001 55.4256V39.1197C14.0001 39.0663 14.0431 39.0229 14.0963 39.0229H19.5781C19.6313 39.0229 19.6743 39.0663 19.6743 39.1197V55.4256ZM59.1595 49.0902L46.7565 55.7812C42.6258 58.0096 37.8589 58.5628 33.3817 57.3567L23.1262 54.0072C23.027 53.9746 22.9235 53.9578 22.819 53.9578H21.6744V40.9797H26.0091C28.9908 40.9797 31.8972 42.0385 34.1937 43.9607L35.9648 45.4434C36.144 45.5935 36.3696 45.6755 36.6025 45.6755H44.1796C45.4595 45.6755 46.501 46.7284 46.501 48.0233C46.501 48.9921 45.9171 49.8252 45.0866 50.1831L45.0808 50.186C44.8036 50.3045 44.499 50.3703 44.1796 50.3703H32.8621C32.3098 50.3703 31.862 50.8227 31.862 51.3818C31.862 51.9408 32.3098 52.3932 32.8621 52.3932H44.1796C44.7883 52.3932 45.3662 52.2623 45.8921 52.0316C45.8994 52.0283 45.9073 52.0293 45.9146 52.0258L57.7151 46.2227C58.1081 46.0291 58.5491 46.0073 58.9588 46.1585C59.3685 46.3106 59.6907 46.6168 59.8671 47.0208C60.2016 47.7873 59.8905 48.696 59.1595 49.0902Z" fill="#1F2838"/>
<path d="M38 36.0112C38 36.5577 38.4442 37 38.9921 37H58.0078C58.5557 37 59 36.5577 59 36.0112C59 31.5613 56.1938 27.7613 52.2565 26.2506C53.7813 25.107 54.7834 23.3058 54.7834 21.2619C54.7834 17.8089 51.9645 15 48.4998 15C45.035 15 42.2166 17.8089 42.2166 21.2619C42.2166 23.3058 43.2185 25.107 44.7432 26.2506C40.8061 27.7614 38 31.5613 38 36.0112ZM44.2008 21.2619C44.2008 18.8991 46.1294 16.9775 48.4998 16.9775C50.8706 16.9775 52.7992 18.8991 52.7992 21.2619C52.7992 23.6246 50.8706 25.5462 48.4998 25.5462C46.1294 25.5462 44.2008 23.6246 44.2008 21.2619ZM48.4998 27.5237C52.8597 27.5237 56.4654 30.8067 56.958 35.0225H40.0419C40.5346 30.8067 44.1398 27.5237 48.4998 27.5237Z" fill="#1F2838"/>
</svg>
