<svg width="75" height="75" viewBox="0 0 75 75" fill="none" xmlns="http://www.w3.org/2000/svg">
<rect width="75" height="75" rx="37.5" fill="white"/>
<path d="M37.4514 63C37.3492 63 37.247 63 37.1449 63C33.2627 61.9781 27.746 59.5255 23.0465 54.3139C12.6259 42.7664 15.0778 26.927 15.6908 23.8613C15.6908 23.5547 15.9973 23.2482 16.3038 23.146C19.4708 21.9197 22.5357 20.6934 25.6005 19.365C29.4827 17.7299 33.2627 15.8905 36.9406 14.1533C37.247 13.9489 37.6557 13.9489 37.9622 14.1533C41.64 15.9927 45.5222 17.7299 49.4044 19.4672C52.3671 20.7956 55.5341 22.0219 58.7011 23.2482C59.0076 23.3504 59.3141 23.6569 59.3141 23.9635C59.9271 27.0292 62.379 42.8686 51.8562 54.4161C47.1568 59.6277 41.64 61.9781 37.7579 63C37.6557 63 37.5535 63 37.4514 63ZM17.5297 24.781C17.0189 28.1533 15.2822 42.562 24.5789 52.9854C28.8697 57.6861 33.8757 59.9343 37.4514 60.9562C41.027 59.9343 46.033 57.6861 50.3238 52.9854C59.6206 42.562 57.8838 28.1533 57.373 24.781C54.4103 23.6569 51.4476 22.4307 48.5871 21.2044C44.8071 19.5693 41.1292 17.8321 37.5535 16.0949C33.9779 17.8321 30.1978 19.5693 26.52 21.2044C23.5573 22.4307 20.5946 23.6569 17.5297 24.781Z" fill="#1F2838"/>
<path d="M37 48C31.5 48 27 43.5 27 38C27 32.5 31.5 28 37 28C37.6 28 38 28.4 38 29C38 29.6 37.6 30 37 30C32.6 30 29 33.6 29 38C29 42.4 32.6 46 37 46C41.4 46 45 42.4 45 38C45 37.4 45.4 37 46 37C46.6 37 47 37.4 47 38C47 43.5 42.5 48 37 48Z" fill="#1F2838"/>
<path d="M38.0091 41C37.7086 41 37.5082 40.8998 37.3079 40.6994L33.3005 36.6908C32.8998 36.29 32.8998 35.6887 33.3005 35.2878C33.7013 34.887 34.3024 34.887 34.7031 35.2878L37.909 38.4947L45.2223 29.3752C45.5229 28.9744 46.2241 28.8742 46.6249 29.1748C47.0256 29.4754 47.1258 30.1769 46.8252 30.5778L38.8106 40.5991C38.6102 40.7996 38.3097 41 38.0091 41Z" fill="#1F2838"/>
</svg>
